<?xml version="1.0" encoding="utf-8"?>
<!-- Generator: Adobe Illustrator 19.2.1, SVG Export Plug-In . SVG Version: 6.00 Build 0)  -->
<svg version="1.1" id="layer" xmlns="http://www.w3.org/2000/svg" xmlns:xlink="http://www.w3.org/1999/xlink" x="0px" y="0px"
	 viewBox="0 0 652 652" style="enable-background:new 0 0 652 652;" xml:space="preserve">
<style type="text/css">
	.st0{fill:#0060D9;}
	.st1{fill:#4285F4;}
	.st2{fill:#5F6368;}
</style>
<path class="st0" d="M154.8,258.6h-39.1l-15.8,22.4l-9.4,22.2l25.2,2.8l26.2-2.7l19.4-33.6C164.1,264.8,160.5,258.6,154.8,258.6z"/>
<path class="st1" d="M22.8,269.8l16.3,27.9c2,3.4,5.6,5.5,9.6,5.5l41.8,0.1l25.2-44.7H29.2C23.5,258.6,19.9,264.9,22.8,269.8z"/>
<path class="st1" d="M98.8,378.5c-2.8,4.9-9.9,5-12.8,0.1l-16.2-27.2c-2-3.4-2.1-7.7-0.1-11.2l20.9-37l51.3,0.1L98.8,378.5z"/>
<path class="st2" d="M195.7,355.1h-10.4l27.5-72.9h10.6l27.5,72.9h-10.4l-7-19.8h-30.7L195.7,355.1z M217.9,293.7l-11.9,32.9h24.2
	l-11.9-32.9H217.9z M284.3,356.7c-3.7,0-7-0.8-10-2.3c-3-1.6-5.3-3.6-7-6.2h-0.4l0.4,6.9v22h-9.4v-71.9h9v6.9h0.4
	c1.6-2.6,4-4.7,7-6.2c3-1.6,6.4-2.3,10-2.3c6.6,0,12.2,2.6,16.7,7.7c4.7,5.2,7,11.5,7,18.8c0,7.4-2.3,13.7-7,18.8
	C296.4,354.1,290.9,356.7,284.3,356.7z M282.7,348.1c4.5,0,8.3-1.7,11.3-5.1c3.1-3.3,4.6-7.6,4.6-12.9c0-5.2-1.5-9.5-4.6-12.9
	c-3.1-3.4-6.8-5.1-11.3-5.1c-4.6,0-8.4,1.7-11.4,5.1c-3,3.4-4.5,7.7-4.5,12.9c0,5.3,1.5,9.6,4.5,13
	C274.4,346.5,278.2,348.1,282.7,348.1z M341.5,356.7c-3.7,0-7-0.8-10-2.3c-3-1.6-5.3-3.6-7-6.2h-0.4l0.4,6.9v22h-9.4v-71.9h9v6.9
	h0.4c1.6-2.6,4-4.7,7-6.2c3-1.6,6.4-2.3,10-2.3c6.6,0,12.2,2.6,16.7,7.7c4.7,5.2,7,11.5,7,18.8c0,7.4-2.3,13.7-7,18.8
	C353.7,354.1,348.1,356.7,341.5,356.7z M340,348.1c4.5,0,8.3-1.7,11.3-5.1c3.1-3.3,4.6-7.6,4.6-12.9c0-5.2-1.5-9.5-4.6-12.9
	c-3.1-3.4-6.8-5.1-11.3-5.1c-4.6,0-8.4,1.7-11.4,5.1c-3,3.4-4.5,7.7-4.5,12.9c0,5.3,1.5,9.6,4.5,13
	C331.6,346.5,335.4,348.1,340,348.1z M420.5,335.6c0,6.4-2.3,11.5-7,15.4c-4.8,3.8-10.5,5.7-17.3,5.7c-6,0-11.4-1.8-16-5.3
	c-4.6-3.5-7.8-8.4-9.6-14.5l9-3.7c0.6,2.2,1.5,4.1,2.5,5.9c1.1,1.8,2.4,3.3,3.8,4.5c1.5,1.3,3.1,2.2,4.8,3c1.8,0.7,3.6,1.1,5.6,1.1
	c4.3,0,7.8-1.1,10.5-3.3c2.7-2.2,4.1-5.1,4.1-8.8c0-3.1-1.1-5.7-3.4-7.8c-2.1-2.1-6-4.1-11.8-6.1c-5.8-2.1-9.5-3.5-10.9-4.3
	c-7.7-3.9-11.6-9.7-11.6-17.4c0-5.4,2.1-9.9,6.4-13.8c4.3-3.8,9.7-5.7,16-5.7c5.6,0,10.4,1.4,14.5,4.3c4.1,2.8,6.8,6.3,8.1,10.5
	l-8.8,3.7c-0.8-2.7-2.4-5-4.8-6.8c-2.4-1.8-5.3-2.7-8.8-2.7c-3.7,0-6.8,1-9.3,3.1c-2.5,1.9-3.8,4.4-3.8,7.4c0,2.5,1,4.7,3,6.5
	c2.2,1.8,6.9,4,14.2,6.5c7.4,2.5,12.7,5.6,15.8,9.2C418.9,325.9,420.5,330.3,420.5,335.6z M430.1,282.1h9.4v23l-0.4,6.9h0.4
	c1.4-2.4,3.6-4.5,6.6-6.1c3-1.6,6-2.4,9.2-2.4c6.1,0,10.8,1.8,14.1,5.2c3.3,3.5,4.9,8.5,4.9,14.9v31.4H465v-29.5
	c0-9-4-13.4-11.9-13.4c-3.8,0-7,1.6-9.6,4.7c-2.6,3.2-3.9,6.8-3.9,11.1v27.2h-9.4V282.1z M507.7,356.7c-7.3,0-13.4-2.5-18.1-7.5
	s-7.1-11.4-7.1-19c0-7.6,2.3-13.9,6.9-19c4.6-5.1,10.5-7.6,17.7-7.6c7.4,0,13.3,2.4,17.7,7.2c4.4,4.8,6.6,11.5,6.6,20.1l-0.1,1
	h-39.2c0.1,4.9,1.8,8.8,4.9,11.8c3.1,3,6.9,4.5,11.2,4.5c6,0,10.7-3,14.1-9l8.4,4.1c-2.2,4.2-5.3,7.5-9.3,9.9
	C517.3,355.5,512.8,356.7,507.7,356.7z M492.8,324.1h28.6c-0.3-3.5-1.7-6.3-4.2-8.6c-2.5-2.3-6-3.4-10.2-3.4c-3.5,0-6.6,1.1-9.1,3.3
	C495.3,317.5,493.6,320.4,492.8,324.1z M562.8,356.7c-7.3,0-13.4-2.5-18.1-7.5s-7.1-11.4-7.1-19c0-7.6,2.3-13.9,6.9-19
	c4.6-5.1,10.5-7.6,17.7-7.6c7.4,0,13.3,2.4,17.7,7.2c4.4,4.8,6.6,11.5,6.6,20.1l-0.1,1h-39.2c0.1,4.9,1.8,8.8,4.9,11.8
	c3.1,3,6.9,4.5,11.2,4.5c6,0,10.7-3,14.1-9l8.4,4.1c-2.2,4.2-5.3,7.5-9.3,9.9C572.4,355.5,567.9,356.7,562.8,356.7z M547.9,324.1
	h28.6c-0.3-3.5-1.7-6.3-4.2-8.6c-2.5-2.3-6-3.4-10.2-3.4c-3.5,0-6.6,1.1-9.1,3.3C550.4,317.5,548.7,320.4,547.9,324.1z M613.3,355.9
	c-4.1,0-7.5-1.3-10.1-3.8s-4.1-6-4.1-10.5v-27.9h-8.8v-8.6h8.8v-15.3h9.4v15.3h12.2v8.6h-12.2v24.9c0,3.3,0.6,5.6,1.9,6.8
	c1.3,1.2,2.8,1.8,4.4,1.8c0.7,0,1.5-0.1,2.2-0.3c0.7-0.2,1.4-0.4,2-0.7l3,8.4C619.4,355.4,616.5,355.9,613.3,355.9z"/>
</svg>
