<?xml version="1.0" encoding="UTF-8"?>
<!DOCTYPE svg PUBLIC "-//W3C//DTD SVG 1.1//EN" "http://www.w3.org/Graphics/SVG/1.1/DTD/svg11.dtd">
<svg xmlns="http://www.w3.org/2000/svg" version="1.1" width="1300px" height="1267px" style="shape-rendering:geometricPrecision; text-rendering:geometricPrecision; image-rendering:optimizeQuality; fill-rule:evenodd; clip-rule:evenodd" xmlns:xlink="http://www.w3.org/1999/xlink">
<g><path style="opacity:1" fill="#0276bc" d="M 84.5,-0.5 C 462.5,-0.5 840.5,-0.5 1218.5,-0.5C 1185.4,375.232 1152.07,750.899 1118.5,1126.5C 1116.16,1128.3 1113.83,1129.97 1111.5,1131.5C 1083.77,1140.07 1055.77,1148.07 1027.5,1155.5C 1024.61,1154.99 1022.28,1155.66 1020.5,1157.5C 1017.61,1156.99 1015.28,1157.66 1013.5,1159.5C 1010.61,1158.99 1008.28,1159.66 1006.5,1161.5C 1003.61,1160.99 1001.28,1161.66 999.5,1163.5C 996.612,1162.99 994.279,1163.66 992.5,1165.5C 989.612,1164.99 987.279,1165.66 985.5,1167.5C 982.612,1166.99 980.279,1167.66 978.5,1169.5C 975.612,1168.99 973.279,1169.66 971.5,1171.5C 968.612,1170.99 966.279,1171.66 964.5,1173.5C 961.612,1172.99 959.279,1173.66 957.5,1175.5C 954.612,1174.99 952.279,1175.66 950.5,1177.5C 947.612,1176.99 945.279,1177.66 943.5,1179.5C 940.612,1178.99 938.279,1179.66 936.5,1181.5C 933.612,1180.99 931.279,1181.66 929.5,1183.5C 926.612,1182.99 924.279,1183.66 922.5,1185.5C 919.612,1184.99 917.279,1185.66 915.5,1187.5C 912.612,1186.99 910.279,1187.66 908.5,1189.5C 905.612,1188.99 903.279,1189.66 901.5,1191.5C 898.612,1190.99 896.279,1191.66 894.5,1193.5C 891.612,1192.99 889.279,1193.66 887.5,1195.5C 884.612,1194.99 882.279,1195.66 880.5,1197.5C 877.612,1196.99 875.279,1197.66 873.5,1199.5C 870.612,1198.99 868.279,1199.66 866.5,1201.5C 863.612,1200.99 861.279,1201.66 859.5,1203.5C 856.612,1202.99 854.279,1203.66 852.5,1205.5C 849.612,1204.99 847.279,1205.66 845.5,1207.5C 842.612,1206.99 840.279,1207.66 838.5,1209.5C 835.612,1208.99 833.279,1209.66 831.5,1211.5C 828.612,1210.99 826.279,1211.66 824.5,1213.5C 821.612,1212.99 819.279,1213.66 817.5,1215.5C 814.612,1214.99 812.279,1215.66 810.5,1217.5C 807.612,1216.99 805.279,1217.66 803.5,1219.5C 800.612,1218.99 798.279,1219.66 796.5,1221.5C 793.612,1220.99 791.279,1221.66 789.5,1223.5C 786.612,1222.99 784.279,1223.66 782.5,1225.5C 779.612,1224.99 777.279,1225.66 775.5,1227.5C 772.612,1226.99 770.279,1227.66 768.5,1229.5C 765.612,1228.99 763.279,1229.66 761.5,1231.5C 758.612,1230.99 756.279,1231.66 754.5,1233.5C 751.612,1232.99 749.279,1233.66 747.5,1235.5C 744.612,1234.99 742.279,1235.66 740.5,1237.5C 737.612,1236.99 735.279,1237.66 733.5,1239.5C 730.612,1238.99 728.279,1239.66 726.5,1241.5C 723.612,1240.99 721.279,1241.66 719.5,1243.5C 716.612,1242.99 714.279,1243.66 712.5,1245.5C 709.612,1244.99 707.279,1245.66 705.5,1247.5C 702.612,1246.99 700.279,1247.66 698.5,1249.5C 695.612,1248.99 693.279,1249.66 691.5,1251.5C 688.612,1250.99 686.279,1251.66 684.5,1253.5C 681.612,1252.99 679.279,1253.66 677.5,1255.5C 674.612,1254.99 672.279,1255.66 670.5,1257.5C 667.612,1256.99 665.279,1257.66 663.5,1259.5C 660.612,1258.99 658.279,1259.66 656.5,1261.5C 653.167,1264.17 649.833,1264.17 646.5,1261.5C 644.485,1260.08 642.152,1259.41 639.5,1259.5C 637.485,1258.08 635.152,1257.41 632.5,1257.5C 630.485,1256.08 628.152,1255.41 625.5,1255.5C 623.485,1254.08 621.152,1253.41 618.5,1253.5C 616.485,1252.08 614.152,1251.41 611.5,1251.5C 609.485,1250.08 607.152,1249.41 604.5,1249.5C 602.485,1248.08 600.152,1247.41 597.5,1247.5C 595.485,1246.08 593.152,1245.41 590.5,1245.5C 588.485,1244.08 586.152,1243.41 583.5,1243.5C 581.485,1242.08 579.152,1241.41 576.5,1241.5C 574.485,1240.08 572.152,1239.41 569.5,1239.5C 567.485,1238.08 565.152,1237.41 562.5,1237.5C 560.485,1236.08 558.152,1235.41 555.5,1235.5C 553.485,1234.08 551.152,1233.41 548.5,1233.5C 546.485,1232.08 544.152,1231.41 541.5,1231.5C 539.485,1230.08 537.152,1229.41 534.5,1229.5C 532.485,1228.08 530.152,1227.41 527.5,1227.5C 525.485,1226.08 523.152,1225.41 520.5,1225.5C 518.485,1224.08 516.152,1223.41 513.5,1223.5C 511.485,1222.08 509.152,1221.41 506.5,1221.5C 504.485,1220.08 502.152,1219.41 499.5,1219.5C 497.485,1218.08 495.152,1217.41 492.5,1217.5C 490.485,1216.08 488.152,1215.41 485.5,1215.5C 483.485,1214.08 481.152,1213.41 478.5,1213.5C 476.485,1212.08 474.152,1211.41 471.5,1211.5C 469.485,1210.08 467.152,1209.41 464.5,1209.5C 462.485,1208.08 460.152,1207.41 457.5,1207.5C 455.485,1206.08 453.152,1205.41 450.5,1205.5C 448.485,1204.08 446.152,1203.41 443.5,1203.5C 441.485,1202.08 439.152,1201.41 436.5,1201.5C 434.485,1200.08 432.152,1199.41 429.5,1199.5C 427.485,1198.08 425.152,1197.41 422.5,1197.5C 420.485,1196.08 418.152,1195.41 415.5,1195.5C 413.485,1194.08 411.152,1193.41 408.5,1193.5C 406.485,1192.08 404.152,1191.41 401.5,1191.5C 399.485,1190.08 397.152,1189.41 394.5,1189.5C 392.485,1188.08 390.152,1187.41 387.5,1187.5C 385.485,1186.08 383.152,1185.41 380.5,1185.5C 378.485,1184.08 376.152,1183.41 373.5,1183.5C 371.485,1182.08 369.152,1181.41 366.5,1181.5C 364.485,1180.08 362.152,1179.41 359.5,1179.5C 357.485,1178.08 355.152,1177.41 352.5,1177.5C 350.485,1176.08 348.152,1175.41 345.5,1175.5C 343.485,1174.08 341.152,1173.41 338.5,1173.5C 336.485,1172.08 334.152,1171.41 331.5,1171.5C 329.485,1170.08 327.152,1169.41 324.5,1169.5C 322.485,1168.08 320.152,1167.41 317.5,1167.5C 315.485,1166.08 313.152,1165.41 310.5,1165.5C 308.485,1164.08 306.152,1163.41 303.5,1163.5C 301.485,1162.08 299.152,1161.41 296.5,1161.5C 294.485,1160.08 292.152,1159.41 289.5,1159.5C 287.485,1158.08 285.152,1157.41 282.5,1157.5C 282.03,1156.31 281.03,1155.64 279.5,1155.5C 277.182,1155 274.848,1154.67 272.5,1154.5C 270.485,1153.08 268.152,1152.41 265.5,1152.5C 263.485,1151.08 261.152,1150.41 258.5,1150.5C 256.485,1149.08 254.152,1148.41 251.5,1148.5C 249.485,1147.08 247.152,1146.41 244.5,1146.5C 242.485,1145.08 240.152,1144.41 237.5,1144.5C 235.485,1143.08 233.152,1142.41 230.5,1142.5C 228.485,1141.08 226.152,1140.41 223.5,1140.5C 221.485,1139.08 219.152,1138.41 216.5,1138.5C 214.485,1137.08 212.152,1136.41 209.5,1136.5C 207.485,1135.08 205.152,1134.41 202.5,1134.5C 200.485,1133.08 198.152,1132.41 195.5,1132.5C 193.485,1131.08 191.152,1130.41 188.5,1130.5C 187.167,1130.5 185.833,1130.5 184.5,1130.5C 151.166,753.497 117.833,376.497 84.5,-0.5 Z"/></g>
<g><path style="opacity:1" fill="#0284cc" d="M 651.5,96.5 C 803.666,95.5004 955.999,95.167 1108.5,95.5C 1108.78,97.4147 1108.45,99.0813 1107.5,100.5C 1107.5,99.1667 1107.5,97.8333 1107.5,96.5C 955.5,96.5 803.5,96.5 651.5,96.5 Z"/></g>
<g><path style="opacity:1" fill="#039be4" d="M 651.5,96.5 C 803.5,96.5 955.5,96.5 1107.5,96.5C 1107.5,97.8333 1107.5,99.1667 1107.5,100.5C 1080.47,417.965 1052.63,735.298 1024,1052.5C 900.185,1088.54 776.185,1124.2 652,1159.5C 651.5,1106.17 651.333,1052.83 651.5,999.5C 652.492,999.672 653.158,999.338 653.5,998.5C 740.445,969.963 827.445,941.629 914.5,913.5C 927.832,696.847 941.165,480.18 954.5,263.5C 853.668,262.501 752.668,262.167 651.5,262.5C 651.5,207.167 651.5,151.833 651.5,96.5 Z"/></g>
<g><path style="opacity:1" fill="#a5cee6" d="M 651.5,262.5 C 752.668,262.167 853.668,262.501 954.5,263.5C 853.5,263.5 752.5,263.5 651.5,263.5C 549.5,263.5 447.5,263.5 345.5,263.5C 345.5,264.833 345.5,266.167 345.5,267.5C 344.549,266.081 344.216,264.415 344.5,262.5C 446.833,262.5 549.167,262.5 651.5,262.5 Z"/></g>
<g><path style="opacity:1" fill="#ededed" d="M 651.5,263.5 C 651.5,307.5 651.5,351.5 651.5,395.5C 706.003,395.168 760.336,395.501 814.5,396.5C 760.167,396.5 705.833,396.5 651.5,396.5C 552.5,396.5 453.5,396.5 354.5,396.5C 351.997,353.467 348.997,310.467 345.5,267.5C 345.5,266.167 345.5,264.833 345.5,263.5C 447.5,263.5 549.5,263.5 651.5,263.5 Z"/></g>
<g><path style="opacity:1" fill="#fefefe" d="M 651.5,263.5 C 752.5,263.5 853.5,263.5 954.5,263.5C 941.165,480.18 927.832,696.847 914.5,913.5C 827.445,941.629 740.445,969.963 653.5,998.5C 651.505,952.512 650.838,906.179 651.5,859.5C 697.105,844.132 742.605,828.465 788,812.5C 791.808,764.206 794.975,715.873 797.5,667.5C 798.451,666.081 798.784,664.415 798.5,662.5C 749.5,662.5 700.5,662.5 651.5,662.5C 651.5,618.167 651.5,573.833 651.5,529.5C 702.833,529.5 754.167,529.5 805.5,529.5C 807.961,485.131 810.961,440.798 814.5,396.5C 760.336,395.501 706.003,395.168 651.5,395.5C 651.5,351.5 651.5,307.5 651.5,263.5 Z"/></g>
<g><path style="opacity:1" fill="#039be5" d="M 651.5,396.5 C 705.833,396.5 760.167,396.5 814.5,396.5C 810.961,440.798 807.961,485.131 805.5,529.5C 754.167,529.5 702.833,529.5 651.5,529.5C 651.5,485.167 651.5,440.833 651.5,396.5 Z"/></g>
<g><path style="opacity:1" fill="#ededed" d="M 651.5,529.5 C 651.5,573.833 651.5,618.167 651.5,662.5C 602.5,662.5 553.5,662.5 504.5,662.5C 502.799,618.153 500.799,573.819 498.5,529.5C 549.5,529.5 600.5,529.5 651.5,529.5 Z"/></g>
<g><path style="opacity:1" fill="#54b2e2" d="M 504.5,662.5 C 553.5,662.5 602.5,662.5 651.5,662.5C 700.5,662.5 749.5,662.5 798.5,662.5C 798.784,664.415 798.451,666.081 797.5,667.5C 797.5,666.167 797.5,664.833 797.5,663.5C 748.833,663.5 700.167,663.5 651.5,663.5C 602.33,663.832 553.33,663.499 504.5,662.5 Z"/></g>
<g><path style="opacity:1" fill="#059be5" d="M 651.5,663.5 C 700.167,663.5 748.833,663.5 797.5,663.5C 797.5,664.833 797.5,666.167 797.5,667.5C 794.975,715.873 791.808,764.206 788,812.5C 742.605,828.465 697.105,844.132 651.5,859.5C 650.508,859.672 649.842,859.338 649.5,858.5C 651.497,793.842 652.163,728.842 651.5,663.5 Z"/></g>
<g><path style="opacity:1" fill="#ededed" d="M 649.5,858.5 C 649.842,859.338 650.508,859.672 651.5,859.5C 650.838,906.179 651.505,952.512 653.5,998.5C 653.158,999.338 652.492,999.672 651.5,999.5C 563.747,970.971 476.08,942.138 388.5,913C 384.687,851.917 381.354,790.751 378.5,729.5C 422.833,729.5 467.167,729.5 511.5,729.5C 512.795,757.386 514.128,785.22 515.5,813C 560.09,828.474 604.757,843.641 649.5,858.5 Z"/></g>
<g><path style="opacity:0.957" fill="#06578a" d="M 1118.5,1126.5 C 1118.5,1127.83 1118.5,1129.17 1118.5,1130.5C 1116.14,1130.67 1113.81,1131.01 1111.5,1131.5C 1113.83,1129.97 1116.16,1128.3 1118.5,1126.5 Z"/></g>
<g><path style="opacity:0.925" fill="#06446b" d="M 188.5,1130.5 C 191.152,1130.41 193.485,1131.08 195.5,1132.5C 192.848,1132.59 190.515,1131.92 188.5,1130.5 Z"/></g>
<g><path style="opacity:0.925" fill="#06446b" d="M 195.5,1132.5 C 198.152,1132.41 200.485,1133.08 202.5,1134.5C 199.848,1134.59 197.515,1133.92 195.5,1132.5 Z"/></g>
<g><path style="opacity:0.925" fill="#06446b" d="M 202.5,1134.5 C 205.152,1134.41 207.485,1135.08 209.5,1136.5C 206.848,1136.59 204.515,1135.92 202.5,1134.5 Z"/></g>
<g><path style="opacity:0.925" fill="#06446b" d="M 209.5,1136.5 C 212.152,1136.41 214.485,1137.08 216.5,1138.5C 213.848,1138.59 211.515,1137.92 209.5,1136.5 Z"/></g>
<g><path style="opacity:0.925" fill="#06446b" d="M 216.5,1138.5 C 219.152,1138.41 221.485,1139.08 223.5,1140.5C 220.848,1140.59 218.515,1139.92 216.5,1138.5 Z"/></g>
<g><path style="opacity:0.925" fill="#06446b" d="M 223.5,1140.5 C 226.152,1140.41 228.485,1141.08 230.5,1142.5C 227.848,1142.59 225.515,1141.92 223.5,1140.5 Z"/></g>
<g><path style="opacity:0.925" fill="#06446b" d="M 230.5,1142.5 C 233.152,1142.41 235.485,1143.08 237.5,1144.5C 234.848,1144.59 232.515,1143.92 230.5,1142.5 Z"/></g>
<g><path style="opacity:0.925" fill="#06446b" d="M 237.5,1144.5 C 240.152,1144.41 242.485,1145.08 244.5,1146.5C 241.848,1146.59 239.515,1145.92 237.5,1144.5 Z"/></g>
<g><path style="opacity:0.925" fill="#06446c" d="M 244.5,1146.5 C 247.152,1146.41 249.485,1147.08 251.5,1148.5C 248.848,1148.59 246.515,1147.92 244.5,1146.5 Z"/></g>
<g><path style="opacity:0.925" fill="#06446c" d="M 251.5,1148.5 C 254.152,1148.41 256.485,1149.08 258.5,1150.5C 255.848,1150.59 253.515,1149.92 251.5,1148.5 Z"/></g>
<g><path style="opacity:0.925" fill="#06446c" d="M 258.5,1150.5 C 261.152,1150.41 263.485,1151.08 265.5,1152.5C 262.848,1152.59 260.515,1151.92 258.5,1150.5 Z"/></g>
<g><path style="opacity:0.925" fill="#06446c" d="M 265.5,1152.5 C 268.152,1152.41 270.485,1153.08 272.5,1154.5C 269.848,1154.59 267.515,1153.92 265.5,1152.5 Z"/></g>
<g><path style="opacity:0.976" fill="#075283" d="M 272.5,1154.5 C 274.848,1154.67 277.182,1155 279.5,1155.5C 281.03,1155.64 282.03,1156.31 282.5,1157.5C 278.838,1157.28 275.505,1156.28 272.5,1154.5 Z"/></g>
<g><path style="opacity:0.976" fill="#0d456f" d="M 1027.5,1155.5 C 1025.49,1156.92 1023.15,1157.59 1020.5,1157.5C 1022.28,1155.66 1024.61,1154.99 1027.5,1155.5 Z"/></g>
<g><path style="opacity:0.847" fill="#093658" d="M 282.5,1157.5 C 285.152,1157.41 287.485,1158.08 289.5,1159.5C 286.848,1159.59 284.515,1158.92 282.5,1157.5 Z"/></g>
<g><path style="opacity:0.976" fill="#0d456f" d="M 1020.5,1157.5 C 1018.49,1158.92 1016.15,1159.59 1013.5,1159.5C 1015.28,1157.66 1017.61,1156.99 1020.5,1157.5 Z"/></g>
<g><path style="opacity:0.847" fill="#093658" d="M 289.5,1159.5 C 292.152,1159.41 294.485,1160.08 296.5,1161.5C 293.848,1161.59 291.515,1160.92 289.5,1159.5 Z"/></g>
<g><path style="opacity:0.976" fill="#0d456f" d="M 1013.5,1159.5 C 1011.49,1160.92 1009.15,1161.59 1006.5,1161.5C 1008.28,1159.66 1010.61,1158.99 1013.5,1159.5 Z"/></g>
<g><path style="opacity:0.847" fill="#093658" d="M 296.5,1161.5 C 299.152,1161.41 301.485,1162.08 303.5,1163.5C 300.848,1163.59 298.515,1162.92 296.5,1161.5 Z"/></g>
<g><path style="opacity:0.976" fill="#0d466f" d="M 1006.5,1161.5 C 1004.49,1162.92 1002.15,1163.59 999.5,1163.5C 1001.28,1161.66 1003.61,1160.99 1006.5,1161.5 Z"/></g>
<g><path style="opacity:0.847" fill="#093658" d="M 303.5,1163.5 C 306.152,1163.41 308.485,1164.08 310.5,1165.5C 307.848,1165.59 305.515,1164.92 303.5,1163.5 Z"/></g>
<g><path style="opacity:0.976" fill="#0d466f" d="M 999.5,1163.5 C 997.485,1164.92 995.152,1165.59 992.5,1165.5C 994.279,1163.66 996.612,1162.99 999.5,1163.5 Z"/></g>
<g><path style="opacity:0.847" fill="#093658" d="M 310.5,1165.5 C 313.152,1165.41 315.485,1166.08 317.5,1167.5C 314.848,1167.59 312.515,1166.92 310.5,1165.5 Z"/></g>
<g><path style="opacity:0.976" fill="#0d466f" d="M 992.5,1165.5 C 990.485,1166.92 988.152,1167.59 985.5,1167.5C 987.279,1165.66 989.612,1164.99 992.5,1165.5 Z"/></g>
<g><path style="opacity:0.847" fill="#093658" d="M 317.5,1167.5 C 320.152,1167.41 322.485,1168.08 324.5,1169.5C 321.848,1169.59 319.515,1168.92 317.5,1167.5 Z"/></g>
<g><path style="opacity:0.976" fill="#0d466f" d="M 985.5,1167.5 C 983.485,1168.92 981.152,1169.59 978.5,1169.5C 980.279,1167.66 982.612,1166.99 985.5,1167.5 Z"/></g>
<g><path style="opacity:0.847" fill="#093658" d="M 324.5,1169.5 C 327.152,1169.41 329.485,1170.08 331.5,1171.5C 328.848,1171.59 326.515,1170.92 324.5,1169.5 Z"/></g>
<g><path style="opacity:0.976" fill="#0d466f" d="M 978.5,1169.5 C 976.485,1170.92 974.152,1171.59 971.5,1171.5C 973.279,1169.66 975.612,1168.99 978.5,1169.5 Z"/></g>
<g><path style="opacity:0.847" fill="#093658" d="M 331.5,1171.5 C 334.152,1171.41 336.485,1172.08 338.5,1173.5C 335.848,1173.59 333.515,1172.92 331.5,1171.5 Z"/></g>
<g><path style="opacity:0.976" fill="#0d466f" d="M 971.5,1171.5 C 969.485,1172.92 967.152,1173.59 964.5,1173.5C 966.279,1171.66 968.612,1170.99 971.5,1171.5 Z"/></g>
<g><path style="opacity:0.847" fill="#093658" d="M 338.5,1173.5 C 341.152,1173.41 343.485,1174.08 345.5,1175.5C 342.848,1175.59 340.515,1174.92 338.5,1173.5 Z"/></g>
<g><path style="opacity:0.976" fill="#0d466f" d="M 964.5,1173.5 C 962.485,1174.92 960.152,1175.59 957.5,1175.5C 959.279,1173.66 961.612,1172.99 964.5,1173.5 Z"/></g>
<g><path style="opacity:0.847" fill="#093658" d="M 345.5,1175.5 C 348.152,1175.41 350.485,1176.08 352.5,1177.5C 349.848,1177.59 347.515,1176.92 345.5,1175.5 Z"/></g>
<g><path style="opacity:0.976" fill="#0d466f" d="M 957.5,1175.5 C 955.485,1176.92 953.152,1177.59 950.5,1177.5C 952.279,1175.66 954.612,1174.99 957.5,1175.5 Z"/></g>
<g><path style="opacity:0.851" fill="#093659" d="M 352.5,1177.5 C 355.152,1177.41 357.485,1178.08 359.5,1179.5C 356.848,1179.59 354.515,1178.92 352.5,1177.5 Z"/></g>
<g><path style="opacity:0.976" fill="#0d466f" d="M 950.5,1177.5 C 948.485,1178.92 946.152,1179.59 943.5,1179.5C 945.279,1177.66 947.612,1176.99 950.5,1177.5 Z"/></g>
<g><path style="opacity:0.851" fill="#0a3659" d="M 359.5,1179.5 C 362.152,1179.41 364.485,1180.08 366.5,1181.5C 363.848,1181.59 361.515,1180.92 359.5,1179.5 Z"/></g>
<g><path style="opacity:0.976" fill="#0d466f" d="M 943.5,1179.5 C 941.485,1180.92 939.152,1181.59 936.5,1181.5C 938.279,1179.66 940.612,1178.99 943.5,1179.5 Z"/></g>
<g><path style="opacity:0.851" fill="#0a3659" d="M 366.5,1181.5 C 369.152,1181.41 371.485,1182.08 373.5,1183.5C 370.848,1183.59 368.515,1182.92 366.5,1181.5 Z"/></g>
<g><path style="opacity:0.976" fill="#0d466f" d="M 936.5,1181.5 C 934.485,1182.92 932.152,1183.59 929.5,1183.5C 931.279,1181.66 933.612,1180.99 936.5,1181.5 Z"/></g>
<g><path style="opacity:0.851" fill="#0a3659" d="M 373.5,1183.5 C 376.152,1183.41 378.485,1184.08 380.5,1185.5C 377.848,1185.59 375.515,1184.92 373.5,1183.5 Z"/></g>
<g><path style="opacity:0.976" fill="#0d466f" d="M 929.5,1183.5 C 927.485,1184.92 925.152,1185.59 922.5,1185.5C 924.279,1183.66 926.612,1182.99 929.5,1183.5 Z"/></g>
<g><path style="opacity:0.851" fill="#093659" d="M 380.5,1185.5 C 383.152,1185.41 385.485,1186.08 387.5,1187.5C 384.848,1187.59 382.515,1186.92 380.5,1185.5 Z"/></g>
<g><path style="opacity:0.976" fill="#0d466f" d="M 922.5,1185.5 C 920.485,1186.92 918.152,1187.59 915.5,1187.5C 917.279,1185.66 919.612,1184.99 922.5,1185.5 Z"/></g>
<g><path style="opacity:0.851" fill="#093659" d="M 387.5,1187.5 C 390.152,1187.41 392.485,1188.08 394.5,1189.5C 391.848,1189.59 389.515,1188.92 387.5,1187.5 Z"/></g>
<g><path style="opacity:0.976" fill="#0d466f" d="M 915.5,1187.5 C 913.485,1188.92 911.152,1189.59 908.5,1189.5C 910.279,1187.66 912.612,1186.99 915.5,1187.5 Z"/></g>
<g><path style="opacity:0.851" fill="#093659" d="M 394.5,1189.5 C 397.152,1189.41 399.485,1190.08 401.5,1191.5C 398.848,1191.59 396.515,1190.92 394.5,1189.5 Z"/></g>
<g><path style="opacity:0.976" fill="#0d466f" d="M 908.5,1189.5 C 906.485,1190.92 904.152,1191.59 901.5,1191.5C 903.279,1189.66 905.612,1188.99 908.5,1189.5 Z"/></g>
<g><path style="opacity:0.851" fill="#093659" d="M 401.5,1191.5 C 404.152,1191.41 406.485,1192.08 408.5,1193.5C 405.848,1193.59 403.515,1192.92 401.5,1191.5 Z"/></g>
<g><path style="opacity:0.976" fill="#0d466f" d="M 901.5,1191.5 C 899.485,1192.92 897.152,1193.59 894.5,1193.5C 896.279,1191.66 898.612,1190.99 901.5,1191.5 Z"/></g>
<g><path style="opacity:0.851" fill="#093659" d="M 408.5,1193.5 C 411.152,1193.41 413.485,1194.08 415.5,1195.5C 412.848,1195.59 410.515,1194.92 408.5,1193.5 Z"/></g>
<g><path style="opacity:0.976" fill="#0d466f" d="M 894.5,1193.5 C 892.485,1194.92 890.152,1195.59 887.5,1195.5C 889.279,1193.66 891.612,1192.99 894.5,1193.5 Z"/></g>
<g><path style="opacity:0.851" fill="#0a3759" d="M 415.5,1195.5 C 418.152,1195.41 420.485,1196.08 422.5,1197.5C 419.848,1197.59 417.515,1196.92 415.5,1195.5 Z"/></g>
<g><path style="opacity:0.976" fill="#0d466f" d="M 887.5,1195.5 C 885.485,1196.92 883.152,1197.59 880.5,1197.5C 882.279,1195.66 884.612,1194.99 887.5,1195.5 Z"/></g>
<g><path style="opacity:0.851" fill="#0a3759" d="M 422.5,1197.5 C 425.152,1197.41 427.485,1198.08 429.5,1199.5C 426.848,1199.59 424.515,1198.92 422.5,1197.5 Z"/></g>
<g><path style="opacity:0.976" fill="#0d466f" d="M 880.5,1197.5 C 878.485,1198.92 876.152,1199.59 873.5,1199.5C 875.279,1197.66 877.612,1196.99 880.5,1197.5 Z"/></g>
<g><path style="opacity:0.851" fill="#0a3759" d="M 429.5,1199.5 C 432.152,1199.41 434.485,1200.08 436.5,1201.5C 433.848,1201.59 431.515,1200.92 429.5,1199.5 Z"/></g>
<g><path style="opacity:0.976" fill="#0d466f" d="M 873.5,1199.5 C 871.485,1200.92 869.152,1201.59 866.5,1201.5C 868.279,1199.66 870.612,1198.99 873.5,1199.5 Z"/></g>
<g><path style="opacity:0.851" fill="#0a3759" d="M 436.5,1201.5 C 439.152,1201.41 441.485,1202.08 443.5,1203.5C 440.848,1203.59 438.515,1202.92 436.5,1201.5 Z"/></g>
<g><path style="opacity:0.976" fill="#0d466f" d="M 866.5,1201.5 C 864.485,1202.92 862.152,1203.59 859.5,1203.5C 861.279,1201.66 863.612,1200.99 866.5,1201.5 Z"/></g>
<g><path style="opacity:0.851" fill="#093759" d="M 443.5,1203.5 C 446.152,1203.41 448.485,1204.08 450.5,1205.5C 447.848,1205.59 445.515,1204.92 443.5,1203.5 Z"/></g>
<g><path style="opacity:0.976" fill="#0d466f" d="M 859.5,1203.5 C 857.485,1204.92 855.152,1205.59 852.5,1205.5C 854.279,1203.66 856.612,1202.99 859.5,1203.5 Z"/></g>
<g><path style="opacity:0.851" fill="#093759" d="M 450.5,1205.5 C 453.152,1205.41 455.485,1206.08 457.5,1207.5C 454.848,1207.59 452.515,1206.92 450.5,1205.5 Z"/></g>
<g><path style="opacity:0.976" fill="#0d466f" d="M 852.5,1205.5 C 850.485,1206.92 848.152,1207.59 845.5,1207.5C 847.279,1205.66 849.612,1204.99 852.5,1205.5 Z"/></g>
<g><path style="opacity:0.851" fill="#093759" d="M 457.5,1207.5 C 460.152,1207.41 462.485,1208.08 464.5,1209.5C 461.848,1209.59 459.515,1208.92 457.5,1207.5 Z"/></g>
<g><path style="opacity:0.976" fill="#0d466f" d="M 845.5,1207.5 C 843.485,1208.92 841.152,1209.59 838.5,1209.5C 840.279,1207.66 842.612,1206.99 845.5,1207.5 Z"/></g>
<g><path style="opacity:0.851" fill="#093759" d="M 464.5,1209.5 C 467.152,1209.41 469.485,1210.08 471.5,1211.5C 468.848,1211.59 466.515,1210.92 464.5,1209.5 Z"/></g>
<g><path style="opacity:0.976" fill="#0d466f" d="M 838.5,1209.5 C 836.485,1210.92 834.152,1211.59 831.5,1211.5C 833.279,1209.66 835.612,1208.99 838.5,1209.5 Z"/></g>
<g><path style="opacity:0.851" fill="#093759" d="M 471.5,1211.5 C 474.152,1211.41 476.485,1212.08 478.5,1213.5C 475.848,1213.59 473.515,1212.92 471.5,1211.5 Z"/></g>
<g><path style="opacity:0.976" fill="#0d466f" d="M 831.5,1211.5 C 829.485,1212.92 827.152,1213.59 824.5,1213.5C 826.279,1211.66 828.612,1210.99 831.5,1211.5 Z"/></g>
<g><path style="opacity:0.851" fill="#093759" d="M 478.5,1213.5 C 481.152,1213.41 483.485,1214.08 485.5,1215.5C 482.848,1215.59 480.515,1214.92 478.5,1213.5 Z"/></g>
<g><path style="opacity:0.976" fill="#0d466f" d="M 824.5,1213.5 C 822.485,1214.92 820.152,1215.59 817.5,1215.5C 819.279,1213.66 821.612,1212.99 824.5,1213.5 Z"/></g>
<g><path style="opacity:0.851" fill="#093759" d="M 485.5,1215.5 C 488.152,1215.41 490.485,1216.08 492.5,1217.5C 489.848,1217.59 487.515,1216.92 485.5,1215.5 Z"/></g>
<g><path style="opacity:0.976" fill="#0d466f" d="M 817.5,1215.5 C 815.485,1216.92 813.152,1217.59 810.5,1217.5C 812.279,1215.66 814.612,1214.99 817.5,1215.5 Z"/></g>
<g><path style="opacity:0.851" fill="#093759" d="M 492.5,1217.5 C 495.152,1217.41 497.485,1218.08 499.5,1219.5C 496.848,1219.59 494.515,1218.92 492.5,1217.5 Z"/></g>
<g><path style="opacity:0.976" fill="#0d466f" d="M 810.5,1217.5 C 808.485,1218.92 806.152,1219.59 803.5,1219.5C 805.279,1217.66 807.612,1216.99 810.5,1217.5 Z"/></g>
<g><path style="opacity:0.851" fill="#0a3759" d="M 499.5,1219.5 C 502.152,1219.41 504.485,1220.08 506.5,1221.5C 503.848,1221.59 501.515,1220.92 499.5,1219.5 Z"/></g>
<g><path style="opacity:0.976" fill="#0d466f" d="M 803.5,1219.5 C 801.485,1220.92 799.152,1221.59 796.5,1221.5C 798.279,1219.66 800.612,1218.99 803.5,1219.5 Z"/></g>
<g><path style="opacity:0.851" fill="#0a3759" d="M 506.5,1221.5 C 509.152,1221.41 511.485,1222.08 513.5,1223.5C 510.848,1223.59 508.515,1222.92 506.5,1221.5 Z"/></g>
<g><path style="opacity:0.976" fill="#0d466f" d="M 796.5,1221.5 C 794.485,1222.92 792.152,1223.59 789.5,1223.5C 791.279,1221.66 793.612,1220.99 796.5,1221.5 Z"/></g>
<g><path style="opacity:0.851" fill="#0a3759" d="M 513.5,1223.5 C 516.152,1223.41 518.485,1224.08 520.5,1225.5C 517.848,1225.59 515.515,1224.92 513.5,1223.5 Z"/></g>
<g><path style="opacity:0.976" fill="#0d466f" d="M 789.5,1223.5 C 787.485,1224.92 785.152,1225.59 782.5,1225.5C 784.279,1223.66 786.612,1222.99 789.5,1223.5 Z"/></g>
<g><path style="opacity:0.855" fill="#0a375a" d="M 520.5,1225.5 C 523.152,1225.41 525.485,1226.08 527.5,1227.5C 524.848,1227.59 522.515,1226.92 520.5,1225.5 Z"/></g>
<g><path style="opacity:0.976" fill="#0d466f" d="M 782.5,1225.5 C 780.485,1226.92 778.152,1227.59 775.5,1227.5C 777.279,1225.66 779.612,1224.99 782.5,1225.5 Z"/></g>
<g><path style="opacity:0.855" fill="#0a375a" d="M 527.5,1227.5 C 530.152,1227.41 532.485,1228.08 534.5,1229.5C 531.848,1229.59 529.515,1228.92 527.5,1227.5 Z"/></g>
<g><path style="opacity:0.976" fill="#0d466f" d="M 775.5,1227.5 C 773.485,1228.92 771.152,1229.59 768.5,1229.5C 770.279,1227.66 772.612,1226.99 775.5,1227.5 Z"/></g>
<g><path style="opacity:0.855" fill="#0a375a" d="M 534.5,1229.5 C 537.152,1229.41 539.485,1230.08 541.5,1231.5C 538.848,1231.59 536.515,1230.92 534.5,1229.5 Z"/></g>
<g><path style="opacity:0.976" fill="#0d466f" d="M 768.5,1229.5 C 766.485,1230.92 764.152,1231.59 761.5,1231.5C 763.279,1229.66 765.612,1228.99 768.5,1229.5 Z"/></g>
<g><path style="opacity:0.855" fill="#0a375a" d="M 541.5,1231.5 C 544.152,1231.41 546.485,1232.08 548.5,1233.5C 545.848,1233.59 543.515,1232.92 541.5,1231.5 Z"/></g>
<g><path style="opacity:0.976" fill="#0d466f" d="M 761.5,1231.5 C 759.485,1232.92 757.152,1233.59 754.5,1233.5C 756.279,1231.66 758.612,1230.99 761.5,1231.5 Z"/></g>
<g><path style="opacity:0.855" fill="#0a375a" d="M 548.5,1233.5 C 551.152,1233.41 553.485,1234.08 555.5,1235.5C 552.848,1235.59 550.515,1234.92 548.5,1233.5 Z"/></g>
<g><path style="opacity:0.976" fill="#0d466f" d="M 754.5,1233.5 C 752.485,1234.92 750.152,1235.59 747.5,1235.5C 749.279,1233.66 751.612,1232.99 754.5,1233.5 Z"/></g>
<g><path style="opacity:0.855" fill="#0a375a" d="M 555.5,1235.5 C 558.152,1235.41 560.485,1236.08 562.5,1237.5C 559.848,1237.59 557.515,1236.92 555.5,1235.5 Z"/></g>
<g><path style="opacity:0.976" fill="#0d466f" d="M 747.5,1235.5 C 745.485,1236.92 743.152,1237.59 740.5,1237.5C 742.279,1235.66 744.612,1234.99 747.5,1235.5 Z"/></g>
<g><path style="opacity:0.855" fill="#0a375a" d="M 562.5,1237.5 C 565.152,1237.41 567.485,1238.08 569.5,1239.5C 566.848,1239.59 564.515,1238.92 562.5,1237.5 Z"/></g>
<g><path style="opacity:0.976" fill="#0d466f" d="M 740.5,1237.5 C 738.485,1238.92 736.152,1239.59 733.5,1239.5C 735.279,1237.66 737.612,1236.99 740.5,1237.5 Z"/></g>
<g><path style="opacity:0.855" fill="#0a375a" d="M 569.5,1239.5 C 572.152,1239.41 574.485,1240.08 576.5,1241.5C 573.848,1241.59 571.515,1240.92 569.5,1239.5 Z"/></g>
<g><path style="opacity:0.976" fill="#0e4670" d="M 733.5,1239.5 C 731.485,1240.92 729.152,1241.59 726.5,1241.5C 728.279,1239.66 730.612,1238.99 733.5,1239.5 Z"/></g>
<g><path style="opacity:0.855" fill="#0a375a" d="M 576.5,1241.5 C 579.152,1241.41 581.485,1242.08 583.5,1243.5C 580.848,1243.59 578.515,1242.92 576.5,1241.5 Z"/></g>
<g><path style="opacity:0.976" fill="#0e4670" d="M 726.5,1241.5 C 724.485,1242.92 722.152,1243.59 719.5,1243.5C 721.279,1241.66 723.612,1240.99 726.5,1241.5 Z"/></g>
<g><path style="opacity:0.855" fill="#0a375a" d="M 583.5,1243.5 C 586.152,1243.41 588.485,1244.08 590.5,1245.5C 587.848,1245.59 585.515,1244.92 583.5,1243.5 Z"/></g>
<g><path style="opacity:0.976" fill="#0e4670" d="M 719.5,1243.5 C 717.485,1244.92 715.152,1245.59 712.5,1245.5C 714.279,1243.66 716.612,1242.99 719.5,1243.5 Z"/></g>
<g><path style="opacity:0.855" fill="#0a375a" d="M 590.5,1245.5 C 593.152,1245.41 595.485,1246.08 597.5,1247.5C 594.848,1247.59 592.515,1246.92 590.5,1245.5 Z"/></g>
<g><path style="opacity:0.976" fill="#0d4670" d="M 712.5,1245.5 C 710.485,1246.92 708.152,1247.59 705.5,1247.5C 707.279,1245.66 709.612,1244.99 712.5,1245.5 Z"/></g>
<g><path style="opacity:0.855" fill="#0a375a" d="M 597.5,1247.5 C 600.152,1247.41 602.485,1248.08 604.5,1249.5C 601.848,1249.59 599.515,1248.92 597.5,1247.5 Z"/></g>
<g><path style="opacity:0.976" fill="#0d4670" d="M 705.5,1247.5 C 703.485,1248.92 701.152,1249.59 698.5,1249.5C 700.279,1247.66 702.612,1246.99 705.5,1247.5 Z"/></g>
<g><path style="opacity:0.855" fill="#0a375a" d="M 604.5,1249.5 C 607.152,1249.41 609.485,1250.08 611.5,1251.5C 608.848,1251.59 606.515,1250.92 604.5,1249.5 Z"/></g>
<g><path style="opacity:0.976" fill="#0d4670" d="M 698.5,1249.5 C 696.485,1250.92 694.152,1251.59 691.5,1251.5C 693.279,1249.66 695.612,1248.99 698.5,1249.5 Z"/></g>
<g><path style="opacity:0.855" fill="#0a375a" d="M 611.5,1251.5 C 614.152,1251.41 616.485,1252.08 618.5,1253.5C 615.848,1253.59 613.515,1252.92 611.5,1251.5 Z"/></g>
<g><path style="opacity:0.976" fill="#0d4670" d="M 691.5,1251.5 C 689.485,1252.92 687.152,1253.59 684.5,1253.5C 686.279,1251.66 688.612,1250.99 691.5,1251.5 Z"/></g>
<g><path style="opacity:0.855" fill="#0a375a" d="M 618.5,1253.5 C 621.152,1253.41 623.485,1254.08 625.5,1255.5C 622.848,1255.59 620.515,1254.92 618.5,1253.5 Z"/></g>
<g><path style="opacity:0.976" fill="#0d4670" d="M 684.5,1253.5 C 682.485,1254.92 680.152,1255.59 677.5,1255.5C 679.279,1253.66 681.612,1252.99 684.5,1253.5 Z"/></g>
<g><path style="opacity:0.855" fill="#0a375a" d="M 625.5,1255.5 C 628.152,1255.41 630.485,1256.08 632.5,1257.5C 629.848,1257.59 627.515,1256.92 625.5,1255.5 Z"/></g>
<g><path style="opacity:0.976" fill="#0d4670" d="M 677.5,1255.5 C 675.485,1256.92 673.152,1257.59 670.5,1257.5C 672.279,1255.66 674.612,1254.99 677.5,1255.5 Z"/></g>
<g><path style="opacity:0.855" fill="#0a375a" d="M 632.5,1257.5 C 635.152,1257.41 637.485,1258.08 639.5,1259.5C 636.848,1259.59 634.515,1258.92 632.5,1257.5 Z"/></g>
<g><path style="opacity:0.976" fill="#0d4670" d="M 670.5,1257.5 C 668.485,1258.92 666.152,1259.59 663.5,1259.5C 665.279,1257.66 667.612,1256.99 670.5,1257.5 Z"/></g>
<g><path style="opacity:0.855" fill="#0a375a" d="M 639.5,1259.5 C 642.152,1259.41 644.485,1260.08 646.5,1261.5C 643.848,1261.59 641.515,1260.92 639.5,1259.5 Z"/></g>
<g><path style="opacity:0.976" fill="#0d4670" d="M 663.5,1259.5 C 661.485,1260.92 659.152,1261.59 656.5,1261.5C 658.279,1259.66 660.612,1258.99 663.5,1259.5 Z"/></g>
</svg>
