<?xml version="1.0" encoding="UTF-8"?>
<!DOCTYPE svg PUBLIC "-//W3C//DTD SVG 1.1//EN" "http://www.w3.org/Graphics/SVG/1.1/DTD/svg11.dtd">
<svg xmlns="http://www.w3.org/2000/svg" version="1.1" width="512px" height="512px" style="shape-rendering:geometricPrecision; text-rendering:geometricPrecision; image-rendering:optimizeQuality; fill-rule:evenodd; clip-rule:evenodd" xmlns:xlink="http://www.w3.org/1999/xlink">
<g><path style="opacity:0.997" fill="#e44d26" d="M 31.5,-0.5 C 181.167,-0.5 330.833,-0.5 480.5,-0.5C 465.903,153.731 451.903,308.064 438.5,462.5C 378.603,478.388 318.937,494.722 259.5,511.5C 256.833,511.5 254.167,511.5 251.5,511.5C 192.063,494.722 132.397,478.388 72.5,462.5C 58.7731,308.171 45.1065,153.838 31.5,-0.5 Z"/></g>
<g><path style="opacity:1" fill="#fe6c39" d="M 255.5,415.5 C 291.311,404.23 327.311,393.563 363.5,383.5C 368.259,324.812 373.259,266.146 378.5,207.5C 337.5,207.5 296.5,207.5 255.5,207.5C 255.5,191.5 255.5,175.5 255.5,159.5C 298.167,159.5 340.833,159.5 383.5,159.5C 385.648,138.204 387.315,116.871 388.5,95.5C 344.167,95.5 299.833,95.5 255.5,95.5C 255.5,74.1667 255.5,52.8333 255.5,31.5C 317.833,31.5 380.167,31.5 442.5,31.5C 429.827,164.9 416.493,298.233 402.5,431.5C 353.599,446.079 304.766,460.746 256,475.5C 255.5,455.503 255.333,435.503 255.5,415.5 Z"/></g>
<g><path style="opacity:1" fill="#fffefe" d="M 255.5,95.5 C 299.833,95.5 344.167,95.5 388.5,95.5C 387.315,116.871 385.648,138.204 383.5,159.5C 340.833,159.5 298.167,159.5 255.5,159.5C 234.164,159.333 212.831,159.5 191.5,160C 193.409,175.736 194.742,191.569 195.5,207.5C 215.5,207.5 235.5,207.5 255.5,207.5C 296.5,207.5 337.5,207.5 378.5,207.5C 373.259,266.146 368.259,324.812 363.5,383.5C 327.311,393.563 291.311,404.23 255.5,415.5C 219.8,404.991 184.134,394.324 148.5,383.5C 145.534,356.872 142.867,330.205 140.5,303.5C 161.167,303.5 181.833,303.5 202.5,303.5C 202.969,314.308 204.303,324.975 206.5,335.5C 222.397,340.911 238.397,345.911 254.5,350.5C 254.56,351.043 254.893,351.376 255.5,351.5C 271.995,345.557 288.662,340.224 305.5,335.5C 307.622,314.493 309.622,293.493 311.5,272.5C 292.845,271.5 274.179,271.167 255.5,271.5C 216.167,271.5 176.833,271.5 137.5,271.5C 132.347,212.818 127.014,154.151 121.5,95.5C 166.167,95.5 210.833,95.5 255.5,95.5 Z"/></g>
<g><path style="opacity:1" fill="#e44d26" d="M 255.5,159.5 C 255.5,175.5 255.5,191.5 255.5,207.5C 235.5,207.5 215.5,207.5 195.5,207.5C 194.742,191.569 193.409,175.736 191.5,160C 212.831,159.5 234.164,159.333 255.5,159.5 Z"/></g>
<g><path style="opacity:1" fill="#ff6c39" d="M 255.5,271.5 C 274.179,271.167 292.845,271.5 311.5,272.5C 309.622,293.493 307.622,314.493 305.5,335.5C 288.662,340.224 271.995,345.557 255.5,351.5C 254.893,351.376 254.56,351.043 254.5,350.5C 255.498,324.339 255.831,298.005 255.5,271.5 Z"/></g>
</svg>
