<svg xmlns="http://www.w3.org/2000/svg" viewBox="0 0 100 100" width="100" height="100">
  <rect width="100" height="100" fill="#0A0A0F" rx="10"/>
  <line x1="25" y1="35" x2="50" y2="20" stroke="#FFC451" stroke-width="1.5" opacity="0.6"/>
  <line x1="50" y1="20" x2="75" y2="35" stroke="#FFC451" stroke-width="1.5" opacity="0.6"/>
  <line x1="75" y1="35" x2="65" y2="70" stroke="#FFC451" stroke-width="1.5" opacity="0.6"/>
  <line x1="65" y1="70" x2="35" y2="70" stroke="#FFC451" stroke-width="1.5" opacity="0.6"/>
  <line x1="35" y1="70" x2="25" y2="35" stroke="#FFC451" stroke-width="1.5" opacity="0.6"/>
  <line x1="25" y1="35" x2="50" y2="50" stroke="#FFC451" stroke-width="1" opacity="0.4"/>
  <line x1="50" y1="20" x2="50" y2="50" stroke="#FFC451" stroke-width="1" opacity="0.4"/>
  <line x1="75" y1="35" x2="50" y2="50" stroke="#FFC451" stroke-width="1" opacity="0.4"/>
  <line x1="65" y1="70" x2="50" y2="50" stroke="#FFC451" stroke-width="1" opacity="0.4"/>
  <line x1="35" y1="70" x2="50" y2="50" stroke="#FFC451" stroke-width="1" opacity="0.4"/>
  <circle cx="25" cy="35" r="4" fill="#FFC451"/>
  <circle cx="50" cy="20" r="4" fill="#FFC451"/>
  <circle cx="75" cy="35" r="4" fill="#FFC451"/>
  <circle cx="65" cy="70" r="4" fill="#FFC451"/>
  <circle cx="35" cy="70" r="4" fill="#FFC451"/>
  <circle cx="50" cy="50" r="3" fill="#FFFFFF"/>
</svg>
