<?xml version="1.0" standalone="no"?>
<!DOCTYPE svg PUBLIC "-//W3C//DTD SVG 20010904//EN"
 "http://www.w3.org/TR/2001/REC-SVG-20010904/DTD/svg10.dtd">
<svg version="1.0" xmlns="http://www.w3.org/2000/svg"
 width="1280.000000pt" height="1280.000000pt" viewBox="0 0 1280.000000 1280.000000"
 preserveAspectRatio="xMidYMid meet">

<g transform="translate(0.000000,1280.000000) scale(0.100000,-0.100000)"
fill="#000000" stroke="none">
<path d="M0 6400 l0 -6400 6400 0 6400 0 0 6400 0 6400 -6400 0 -6400 0 0
-6400z m7710 3862 c762 -78 1202 -244 1541 -582 221 -220 365 -493 428 -813
63 -313 65 -651 6 -943 -79 -390 -281 -702 -620 -954 -96 -71 -237 -159 -322
-200 -29 -14 -52 -27 -53 -30 0 -3 52 -23 116 -44 153 -52 362 -155 499 -246
151 -101 344 -294 444 -444 173 -261 282 -557 327 -891 21 -155 24 -500 6
-645 -49 -389 -180 -718 -401 -1005 -376 -489 -1002 -804 -1806 -909 -255 -34
-480 -37 -2385 -34 l-1885 3 -3 3865 c-1 2126 0 3871 3 3878 7 18 3928 12
4105 -6z"/>
<path d="M5310 8045 l0 -906 968 4 c957 3 968 3 1065 25 324 74 533 216 638
437 71 146 82 211 83 450 0 201 -1 214 -28 300 -78 255 -251 422 -532 514
-223 73 -359 81 -1356 81 l-838 0 0 -905z"/>
<path d="M5310 4910 l0 -1060 953 0 c1004 0 1107 4 1316 46 441 88 711 335
787 719 24 121 24 401 0 535 -45 254 -152 447 -313 569 -135 102 -313 178
-519 223 -98 21 -115 22 -1161 25 l-1063 4 0 -1061z"/>
</g>
</svg>
