<?xml version="1.0" encoding="UTF-8"?>
<!DOCTYPE svg PUBLIC "-//W3C//DTD SVG 1.1//EN" "http://www.w3.org/Graphics/SVG/1.1/DTD/svg11.dtd">
<svg xmlns="http://www.w3.org/2000/svg" version="1.1" width="1833px" height="1833px" style="shape-rendering:geometricPrecision; text-rendering:geometricPrecision; image-rendering:optimizeQuality; fill-rule:evenodd; clip-rule:evenodd" xmlns:xlink="http://www.w3.org/1999/xlink">
<g><path style="opacity:0.408" fill="#321901" d="M 1045.5,15.5 C 1044.66,15.8417 1044.33,16.5084 1044.5,17.5C 1043.4,16.3991 1043.24,15.0657 1044,13.5C 1044.72,14.0442 1045.22,14.7109 1045.5,15.5 Z"/></g>
<g><path style="opacity:0.784" fill="#67330a" d="M 1045.5,15.5 C 1046.91,15.9731 1047.57,16.9731 1047.5,18.5C 1046.09,18.0269 1045.43,17.0269 1045.5,15.5 Z"/></g>
<g><path style="opacity:1" fill="#e16c00" d="M 1045.5,15.5 C 1045.43,17.0269 1046.09,18.0269 1047.5,18.5C 1050.93,21.6012 1053.6,25.2679 1055.5,29.5C 1055.43,31.0269 1056.09,32.0269 1057.5,32.5C 1063.43,41.712 1067.77,51.712 1070.5,62.5C 1070.41,65.1522 1071.08,67.4855 1072.5,69.5C 1078.98,93.6358 1079.15,117.969 1073,142.5C 1065.95,170.926 1054.28,197.26 1038,221.5C 1011.08,259.092 979.915,292.925 944.5,323C 918.518,342.638 894.018,364.138 871,387.5C 851.007,408.522 836.34,432.855 827,460.5C 819.734,488.368 821.4,515.702 832,542.5C 837.984,555.801 844.484,568.801 851.5,581.5C 851.427,583.027 852.094,584.027 853.5,584.5C 854.338,584.842 854.672,585.508 854.5,586.5C 854.427,588.027 855.094,589.027 856.5,589.5C 856.427,591.027 857.094,592.027 858.5,592.5C 858.427,594.027 859.094,595.027 860.5,595.5C 861.401,596.29 862.068,597.29 862.5,598.5C 862.427,600.027 863.094,601.027 864.5,601.5C 864.427,603.027 865.094,604.027 866.5,604.5C 866.427,606.027 867.094,607.027 868.5,607.5C 868.427,609.027 869.094,610.027 870.5,610.5C 872.547,612.55 874.214,614.883 875.5,617.5C 875.427,619.027 876.094,620.027 877.5,620.5C 879.547,622.55 881.214,624.883 882.5,627.5C 882.427,629.027 883.094,630.027 884.5,630.5C 886.547,632.55 888.214,634.883 889.5,637.5C 889.427,639.027 890.094,640.027 891.5,640.5C 891.427,642.027 892.094,643.027 893.5,643.5C 893.427,645.027 894.094,646.027 895.5,646.5C 895.427,648.027 896.094,649.027 897.5,649.5C 897.427,651.027 898.094,652.027 899.5,652.5C 899.427,654.027 900.094,655.027 901.5,655.5C 901.427,657.027 902.094,658.027 903.5,658.5C 910.447,668.055 916.114,678.389 920.5,689.5C 920.5,690.167 920.167,690.5 919.5,690.5C 918.5,690.167 917.833,689.5 917.5,688.5C 917.027,687.094 916.027,686.427 914.5,686.5C 911.5,684.167 908.833,681.5 906.5,678.5C 905.738,676.738 904.404,675.738 902.5,675.5C 898.833,672.5 895.5,669.167 892.5,665.5C 891.738,663.738 890.404,662.738 888.5,662.5C 883.5,658.167 878.833,653.5 874.5,648.5C 873.738,646.738 872.404,645.738 870.5,645.5C 835.351,612.87 804.851,576.536 779,536.5C 765.565,514.529 758.398,490.696 757.5,465C 757.352,457.209 758.352,449.709 760.5,442.5C 761.924,440.485 762.59,438.152 762.5,435.5C 766.743,420.337 774.076,407.004 784.5,395.5C 785.906,395.027 786.573,394.027 786.5,392.5C 786.833,391.5 787.5,390.833 788.5,390.5C 789.906,390.027 790.573,389.027 790.5,387.5C 790.833,386.5 791.5,385.833 792.5,385.5C 793.906,385.027 794.573,384.027 794.5,382.5C 796.167,380.167 798.167,378.167 800.5,376.5C 802.262,375.738 803.262,374.404 803.5,372.5C 806.5,368.833 809.833,365.5 813.5,362.5C 818.44,359.23 822.773,355.23 826.5,350.5C 826.833,349.5 827.5,348.833 828.5,348.5C 831.764,346.906 834.431,344.573 836.5,341.5C 836.5,340.833 836.833,340.5 837.5,340.5C 840.089,339.581 842.089,337.914 843.5,335.5C 843.5,334.833 843.833,334.5 844.5,334.5C 847.089,333.581 849.089,331.914 850.5,329.5C 853.089,328.581 855.089,326.914 856.5,324.5C 868.945,313.447 881.945,303.114 895.5,293.5C 897.749,292.92 899.415,291.587 900.5,289.5C 903.208,286.791 906.208,284.458 909.5,282.5C 911.749,281.92 913.415,280.587 914.5,278.5C 916.749,277.92 918.415,276.587 919.5,274.5C 921.749,273.92 923.415,272.587 924.5,270.5C 926.749,269.92 928.415,268.587 929.5,266.5C 930.891,264.11 932.891,262.443 935.5,261.5C 937.749,260.92 939.415,259.587 940.5,257.5C 940.5,256.833 940.833,256.5 941.5,256.5C 944.089,255.581 946.089,253.914 947.5,251.5C 950.427,250.243 952.761,248.243 954.5,245.5C 954.833,244.5 955.5,243.833 956.5,243.5C 959.764,241.906 962.431,239.573 964.5,236.5C 965.167,235.167 966.167,234.167 967.5,233.5C 974.5,228.5 980.5,222.5 985.5,215.5C 987.5,212.833 989.833,210.5 992.5,208.5C 993.906,208.027 994.573,207.027 994.5,205.5C 995.833,203.5 997.5,201.833 999.5,200.5C 1000.91,200.027 1001.57,199.027 1001.5,197.5C 1001.83,196.5 1002.5,195.833 1003.5,195.5C 1004.91,195.027 1005.57,194.027 1005.5,192.5C 1008.6,187.948 1011.94,183.614 1015.5,179.5C 1016.91,179.027 1017.57,178.027 1017.5,176.5C 1018.91,176.027 1019.57,175.027 1019.5,173.5C 1020.11,171.566 1021.11,169.899 1022.5,168.5C 1023.91,168.027 1024.57,167.027 1024.5,165.5C 1024.66,163.847 1025.33,162.514 1026.5,161.5C 1027.91,161.027 1028.57,160.027 1028.5,158.5C 1051.33,113.558 1056.66,66.5579 1044.5,17.5C 1044.33,16.5084 1044.66,15.8417 1045.5,15.5 Z"/></g>
<g><path style="opacity:0.451" fill="#5c2e06" d="M 1055.5,29.5 C 1056.91,29.9731 1057.57,30.9731 1057.5,32.5C 1056.09,32.0269 1055.43,31.0269 1055.5,29.5 Z"/></g>
<g><path style="opacity:0.714" fill="#773a06" d="M 1070.5,62.5 C 1071.92,64.5145 1072.59,66.8478 1072.5,69.5C 1071.08,67.4855 1070.41,65.1522 1070.5,62.5 Z"/></g>
<g><path style="opacity:0.325" fill="#4c2606" d="M 1028.5,158.5 C 1028.57,160.027 1027.91,161.027 1026.5,161.5C 1026.43,159.973 1027.09,158.973 1028.5,158.5 Z"/></g>
<g><path style="opacity:0.412" fill="#572b06" d="M 1024.5,165.5 C 1024.57,167.027 1023.91,168.027 1022.5,168.5C 1022.43,166.973 1023.09,165.973 1024.5,165.5 Z"/></g>
<g><path style="opacity:0.502" fill="#623006" d="M 1019.5,173.5 C 1019.57,175.027 1018.91,176.027 1017.5,176.5C 1017.43,174.973 1018.09,173.973 1019.5,173.5 Z"/></g>
<g><path style="opacity:0.557" fill="#673207" d="M 1017.5,176.5 C 1017.57,178.027 1016.91,179.027 1015.5,179.5C 1015.43,177.973 1016.09,176.973 1017.5,176.5 Z"/></g>
<g><path style="opacity:0.678" fill="#552b08" d="M 1005.5,192.5 C 1005.57,194.027 1004.91,195.027 1003.5,195.5C 1003.43,193.973 1004.09,192.973 1005.5,192.5 Z"/></g>
<g><path style="opacity:0.757" fill="#62310a" d="M 1001.5,197.5 C 1001.57,199.027 1000.91,200.027 999.5,200.5C 999.427,198.973 1000.09,197.973 1001.5,197.5 Z"/></g>
<g><path style="opacity:0.678" fill="#592d09" d="M 994.5,205.5 C 994.573,207.027 993.906,208.027 992.5,208.5C 992.427,206.973 993.094,205.973 994.5,205.5 Z"/></g>
<g><path style="opacity:0.843" fill="#87420a" d="M 985.5,215.5 C 980.5,222.5 974.5,228.5 967.5,233.5C 973.167,227.167 979.167,221.167 985.5,215.5 Z"/></g>
<g><path style="opacity:0.733" fill="#723809" d="M 964.5,236.5 C 962.431,239.573 959.764,241.906 956.5,243.5C 958.569,240.427 961.236,238.094 964.5,236.5 Z"/></g>
<g><path style="opacity:0.859" fill="#844008" d="M 954.5,245.5 C 952.761,248.243 950.427,250.243 947.5,251.5C 949.239,248.757 951.573,246.757 954.5,245.5 Z"/></g>
<g><path style="opacity:0.878" fill="#803e08" d="M 947.5,251.5 C 946.089,253.914 944.089,255.581 941.5,256.5C 942.911,254.086 944.911,252.419 947.5,251.5 Z"/></g>
<g><path style="opacity:0.925" fill="#864108" d="M 940.5,257.5 C 939.415,259.587 937.749,260.92 935.5,261.5C 936.585,259.413 938.251,258.08 940.5,257.5 Z"/></g>
<g><path style="opacity:0.922" fill="#823f08" d="M 1192.5,270.5 C 1191.43,269.566 1190.1,269.232 1188.5,269.5C 1191.86,267.579 1195.52,266.746 1199.5,267C 1197.42,268.705 1195.09,269.872 1192.5,270.5 Z"/></g>
<g><path style="opacity:0.937" fill="#874207" d="M 929.5,266.5 C 928.415,268.587 926.749,269.92 924.5,270.5C 925.585,268.413 927.251,267.08 929.5,266.5 Z"/></g>
<g><path style="opacity:1" fill="#e16c00" d="M 1188.5,269.5 C 1190.1,269.232 1191.43,269.566 1192.5,270.5C 1155.21,292.481 1118.88,315.981 1083.5,341C 1058.17,358.995 1035.33,379.828 1015,403.5C 1002.1,419.455 994.605,437.622 992.5,458C 993.217,466.258 994.717,474.425 997,482.5C 1000.98,492.46 1005.48,502.126 1010.5,511.5C 1010.43,513.027 1011.09,514.027 1012.5,514.5C 1012.43,516.027 1013.09,517.027 1014.5,517.5C 1024.74,531.65 1034.74,545.984 1044.5,560.5C 1044.43,562.027 1045.09,563.027 1046.5,563.5C 1046.43,565.027 1047.09,566.027 1048.5,566.5C 1064.59,592.236 1066.75,619.236 1055,647.5C 1045.01,667.617 1031.51,685.117 1014.5,700C 1000.1,712.244 984.768,723.077 968.5,732.5C 967.508,732.672 966.842,732.338 966.5,731.5C 967.833,729.5 969.5,727.833 971.5,726.5C 973.262,725.738 974.262,724.404 974.5,722.5C 976.817,718.854 979.484,715.52 982.5,712.5C 983.906,712.027 984.573,711.027 984.5,709.5C 985.906,709.027 986.573,708.027 986.5,706.5C 994.475,692.403 999.142,677.237 1000.5,661C 999.735,648.103 996.401,635.936 990.5,624.5C 990.715,622.821 990.048,621.821 988.5,621.5C 978.917,608.683 969.084,596.016 959,583.5C 954.572,576.973 950.405,570.307 946.5,563.5C 946.715,561.821 946.048,560.821 944.5,560.5C 914.359,509.56 915.193,459.227 947,409.5C 951.658,403.013 956.824,397.013 962.5,391.5C 963.906,391.027 964.573,390.027 964.5,388.5C 966.167,386.167 968.167,384.167 970.5,382.5C 974.1,380.57 977.1,377.903 979.5,374.5C 979.5,373.833 979.833,373.5 980.5,373.5C 983.427,372.243 985.761,370.243 987.5,367.5C 987.5,366.833 987.833,366.5 988.5,366.5C 990.749,365.92 992.415,364.587 993.5,362.5C 997.254,358.452 1001.59,355.118 1006.5,352.5C 1008.03,352.573 1009.03,351.906 1009.5,350.5C 1045.33,325.412 1084,305.246 1125.5,290C 1140.61,284.13 1155.94,278.964 1171.5,274.5C 1175.16,274.277 1178.5,273.277 1181.5,271.5C 1183.51,270.076 1185.85,269.41 1188.5,269.5 Z"/></g>
<g><path style="opacity:0.894" fill="#854006" d="M 1181.5,271.5 C 1178.5,273.277 1175.16,274.277 1171.5,274.5C 1174.5,272.723 1177.84,271.723 1181.5,271.5 Z"/></g>
<g><path style="opacity:0.937" fill="#844007" d="M 924.5,270.5 C 923.415,272.587 921.749,273.92 919.5,274.5C 920.585,272.413 922.251,271.08 924.5,270.5 Z"/></g>
<g><path style="opacity:0.941" fill="#854107" d="M 919.5,274.5 C 918.415,276.587 916.749,277.92 914.5,278.5C 915.585,276.413 917.251,275.08 919.5,274.5 Z"/></g>
<g><path style="opacity:0.953" fill="#894207" d="M 914.5,278.5 C 913.415,280.587 911.749,281.92 909.5,282.5C 910.585,280.413 912.251,279.08 914.5,278.5 Z"/></g>
<g><path style="opacity:0.957" fill="#8a4307" d="M 900.5,289.5 C 899.415,291.587 897.749,292.92 895.5,293.5C 896.585,291.413 898.251,290.08 900.5,289.5 Z"/></g>
<g><path style="opacity:0.91" fill="#864107" d="M 856.5,324.5 C 855.089,326.914 853.089,328.581 850.5,329.5C 851.911,327.086 853.911,325.419 856.5,324.5 Z"/></g>
<g><path style="opacity:0.906" fill="#874208" d="M 850.5,329.5 C 849.089,331.914 847.089,333.581 844.5,334.5C 845.911,332.086 847.911,330.419 850.5,329.5 Z"/></g>
<g><path style="opacity:0.906" fill="#894308" d="M 843.5,335.5 C 842.089,337.914 840.089,339.581 837.5,340.5C 838.911,338.086 840.911,336.419 843.5,335.5 Z"/></g>
<g><path style="opacity:0.816" fill="#7d3d09" d="M 836.5,341.5 C 834.431,344.573 831.764,346.906 828.5,348.5C 830.569,345.427 833.236,343.094 836.5,341.5 Z"/></g>
<g><path style="opacity:0.745" fill="#663208" d="M 1009.5,350.5 C 1009.03,351.906 1008.03,352.573 1006.5,352.5C 1006.97,351.094 1007.97,350.427 1009.5,350.5 Z"/></g>
<g><path style="opacity:0.843" fill="#7e3e0a" d="M 826.5,350.5 C 822.773,355.23 818.44,359.23 813.5,362.5C 817.227,357.77 821.56,353.77 826.5,350.5 Z"/></g>
<g><path style="opacity:0.922" fill="#813f08" d="M 993.5,362.5 C 992.415,364.587 990.749,365.92 988.5,366.5C 989.585,364.413 991.251,363.08 993.5,362.5 Z"/></g>
<g><path style="opacity:0.89" fill="#874108" d="M 987.5,367.5 C 985.761,370.243 983.427,372.243 980.5,373.5C 982.239,370.757 984.573,368.757 987.5,367.5 Z"/></g>
<g><path style="opacity:0.588" fill="#633108" d="M 803.5,372.5 C 803.262,374.404 802.262,375.738 800.5,376.5C 800.738,374.596 801.738,373.262 803.5,372.5 Z"/></g>
<g><path style="opacity:0.827" fill="#753a0a" d="M 979.5,374.5 C 977.1,377.903 974.1,380.57 970.5,382.5C 972.9,379.097 975.9,376.43 979.5,374.5 Z"/></g>
<g><path style="opacity:0.643" fill="#522907" d="M 794.5,382.5 C 794.573,384.027 793.906,385.027 792.5,385.5C 792.427,383.973 793.094,382.973 794.5,382.5 Z"/></g>
<g><path style="opacity:0.769" fill="#64320a" d="M 790.5,387.5 C 790.573,389.027 789.906,390.027 788.5,390.5C 788.427,388.973 789.094,387.973 790.5,387.5 Z"/></g>
<g><path style="opacity:0.643" fill="#542a08" d="M 964.5,388.5 C 964.573,390.027 963.906,391.027 962.5,391.5C 962.427,389.973 963.094,388.973 964.5,388.5 Z"/></g>
<g><path style="opacity:0.722" fill="#5a2e09" d="M 786.5,392.5 C 786.573,394.027 785.906,395.027 784.5,395.5C 784.427,393.973 785.094,392.973 786.5,392.5 Z"/></g>
<g><path style="opacity:0.973" fill="#894205" d="M 762.5,435.5 C 762.59,438.152 761.924,440.485 760.5,442.5C 760.41,439.848 761.076,437.515 762.5,435.5 Z"/></g>
<g><path style="opacity:0.502" fill="#633106" d="M 1010.5,511.5 C 1011.91,511.973 1012.57,512.973 1012.5,514.5C 1011.09,514.027 1010.43,513.027 1010.5,511.5 Z"/></g>
<g><path style="opacity:0.396" fill="#522806" d="M 1012.5,514.5 C 1013.91,514.973 1014.57,515.973 1014.5,517.5C 1013.09,517.027 1012.43,516.027 1012.5,514.5 Z"/></g>
<g><path style="opacity:0.937" fill="#6a350b" d="M 944.5,560.5 C 946.048,560.821 946.715,561.821 946.5,563.5C 945.599,562.71 944.932,561.71 944.5,560.5 Z"/></g>
<g><path style="opacity:0.502" fill="#5f2f07" d="M 1044.5,560.5 C 1045.91,560.973 1046.57,561.973 1046.5,563.5C 1045.09,563.027 1044.43,562.027 1044.5,560.5 Z"/></g>
<g><path style="opacity:0.424" fill="#582c06" d="M 1046.5,563.5 C 1047.91,563.973 1048.57,564.973 1048.5,566.5C 1047.09,566.027 1046.43,565.027 1046.5,563.5 Z"/></g>
<g><path style="opacity:0.357" fill="#4d2605" d="M 851.5,581.5 C 852.906,581.973 853.573,582.973 853.5,584.5C 852.094,584.027 851.427,583.027 851.5,581.5 Z"/></g>
<g><path style="opacity:0.49" fill="#602f06" d="M 854.5,586.5 C 855.906,586.973 856.573,587.973 856.5,589.5C 855.094,589.027 854.427,588.027 854.5,586.5 Z"/></g>
<g><path style="opacity:0.439" fill="#582b06" d="M 856.5,589.5 C 857.906,589.973 858.573,590.973 858.5,592.5C 857.094,592.027 856.427,591.027 856.5,589.5 Z"/></g>
<g><path style="opacity:0.388" fill="#502706" d="M 858.5,592.5 C 859.906,592.973 860.573,593.973 860.5,595.5C 859.094,595.027 858.427,594.027 858.5,592.5 Z"/></g>
<g><path style="opacity:0.4" fill="#4f2706" d="M 862.5,598.5 C 863.906,598.973 864.573,599.973 864.5,601.5C 863.094,601.027 862.427,600.027 862.5,598.5 Z"/></g>
<g><path style="opacity:0.435" fill="#552906" d="M 864.5,601.5 C 865.906,601.973 866.573,602.973 866.5,604.5C 865.094,604.027 864.427,603.027 864.5,601.5 Z"/></g>
<g><path style="opacity:0.475" fill="#5b2d06" d="M 866.5,604.5 C 867.906,604.973 868.573,605.973 868.5,607.5C 867.094,607.027 866.427,606.027 866.5,604.5 Z"/></g>
<g><path style="opacity:0.553" fill="#663207" d="M 868.5,607.5 C 869.906,607.973 870.573,608.973 870.5,610.5C 869.094,610.027 868.427,609.027 868.5,607.5 Z"/></g>
<g><path style="opacity:0.518" fill="#612f07" d="M 875.5,617.5 C 876.906,617.973 877.573,618.973 877.5,620.5C 876.094,620.027 875.427,619.027 875.5,617.5 Z"/></g>
<g><path style="opacity:0.922" fill="#65330b" d="M 988.5,621.5 C 990.048,621.821 990.715,622.821 990.5,624.5C 989.599,623.71 988.932,622.71 988.5,621.5 Z"/></g>
<g><path style="opacity:0.518" fill="#612f07" d="M 882.5,627.5 C 883.906,627.973 884.573,628.973 884.5,630.5C 883.094,630.027 882.427,629.027 882.5,627.5 Z"/></g>
<g><path style="opacity:0.455" fill="#582b06" d="M 889.5,637.5 C 890.906,637.973 891.573,638.973 891.5,640.5C 890.094,640.027 889.427,639.027 889.5,637.5 Z"/></g>
<g><path style="opacity:0.514" fill="#613007" d="M 891.5,640.5 C 892.906,640.973 893.573,641.973 893.5,643.5C 892.094,643.027 891.427,642.027 891.5,640.5 Z"/></g>
<g><path style="opacity:0.62" fill="#4e2708" d="M 870.5,645.5 C 872.404,645.738 873.738,646.738 874.5,648.5C 872.596,648.262 871.262,647.262 870.5,645.5 Z"/></g>
<g><path style="opacity:0.553" fill="#683207" d="M 893.5,643.5 C 894.906,643.973 895.573,644.973 895.5,646.5C 894.094,646.027 893.427,645.027 893.5,643.5 Z"/></g>
<g><path style="opacity:0.537" fill="#673307" d="M 895.5,646.5 C 896.906,646.973 897.573,647.973 897.5,649.5C 896.094,649.027 895.427,648.027 895.5,646.5 Z"/></g>
<g><path style="opacity:0.529" fill="#643107" d="M 897.5,649.5 C 898.906,649.973 899.573,650.973 899.5,652.5C 898.094,652.027 897.427,651.027 897.5,649.5 Z"/></g>
<g><path style="opacity:0.494" fill="#612f07" d="M 899.5,652.5 C 900.906,652.973 901.573,653.973 901.5,655.5C 900.094,655.027 899.427,654.027 899.5,652.5 Z"/></g>
<g><path style="opacity:0.388" fill="#512806" d="M 901.5,655.5 C 902.906,655.973 903.573,656.973 903.5,658.5C 902.094,658.027 901.427,657.027 901.5,655.5 Z"/></g>
<g><path style="opacity:0.682" fill="#552b09" d="M 888.5,662.5 C 890.404,662.738 891.738,663.738 892.5,665.5C 890.596,665.262 889.262,664.262 888.5,662.5 Z"/></g>
<g><path style="opacity:0.702" fill="#552b09" d="M 902.5,675.5 C 904.404,675.738 905.738,676.738 906.5,678.5C 904.596,678.262 903.262,677.262 902.5,675.5 Z"/></g>
<g><path style="opacity:1" fill="#4f7c9a" d="M 1260.5,682.5 C 1293.53,679.571 1322.87,688.404 1348.5,709C 1379.41,741.556 1384.24,777.723 1363,817.5C 1349.59,838.247 1332.75,855.747 1312.5,870C 1271.28,896.854 1226.61,915.52 1178.5,926C 1180.5,923.667 1182.5,921.333 1184.5,919C 1224.8,899.365 1260.63,873.532 1292,841.5C 1305.26,826.997 1314.92,810.33 1321,791.5C 1329.44,750.543 1314.6,721.376 1276.5,704C 1264.23,699.288 1251.56,697.622 1238.5,699C 1227.75,701.356 1217.09,703.689 1206.5,706C 1211.48,699.336 1217.82,694.336 1225.5,691C 1237.04,687.064 1248.71,684.231 1260.5,682.5 Z"/></g>
<g><path style="opacity:0.659" fill="#572c09" d="M 914.5,686.5 C 916.027,686.427 917.027,687.094 917.5,688.5C 915.973,688.573 914.973,687.906 914.5,686.5 Z"/></g>
<g><path style="opacity:0.612" fill="#4b2504" d="M 920.5,689.5 C 921.267,690.172 921.934,691.005 922.5,692C 921.002,692.585 920.002,692.085 919.5,690.5C 920.167,690.5 920.5,690.167 920.5,689.5 Z"/></g>
<g><path style="opacity:1" fill="#507d9b" d="M 1174.5,741.5 C 1175.87,741.343 1177.21,741.51 1178.5,742C 1177.94,742.383 1177.61,742.883 1177.5,743.5C 1160.72,751.052 1144.72,759.886 1129.5,770C 1091.02,780.025 1052.02,787.359 1012.5,792C 895.631,805.685 778.631,807.018 661.5,796C 638.146,793.497 615.146,789.163 592.5,783C 585.172,780.779 578.172,777.779 571.5,774C 563.3,769.401 561.133,762.901 565,754.5C 568.251,750.578 572.084,747.412 576.5,745C 640.363,711.368 708.363,694.701 780.5,695C 752.463,702.124 724.796,710.457 697.5,720C 682.832,725.167 669.166,732.167 656.5,741C 652.751,744.292 651.918,748.125 654,752.5C 661.2,758.127 669.367,761.627 678.5,763C 701.944,767.578 725.611,770.245 749.5,771C 892.117,774.859 1033.78,765.026 1174.5,741.5 Z"/></g>
<g><path style="opacity:0.455" fill="#5d2e06" d="M 986.5,706.5 C 986.573,708.027 985.906,709.027 984.5,709.5C 984.427,707.973 985.094,706.973 986.5,706.5 Z"/></g>
<g><path style="opacity:0.459" fill="#592c06" d="M 984.5,709.5 C 984.573,711.027 983.906,712.027 982.5,712.5C 982.427,710.973 983.094,709.973 984.5,709.5 Z"/></g>
<g><path style="opacity:0.784" fill="#633109" d="M 974.5,722.5 C 974.262,724.404 973.262,725.738 971.5,726.5C 971.738,724.596 972.738,723.262 974.5,722.5 Z"/></g>
<g><path style="opacity:0.957" fill="#582c08" d="M 966.5,731.5 C 966.842,732.338 967.508,732.672 968.5,732.5C 966.481,733.933 964.314,735.267 962,736.5C 961.333,735.833 961.333,735.167 962,734.5C 963.615,733.614 965.115,732.614 966.5,731.5 Z"/></g>
<g><path style="opacity:0.812" fill="#253844" d="M 1177.5,743.5 C 1177.61,742.883 1177.94,742.383 1178.5,742C 1177.21,741.51 1175.87,741.343 1174.5,741.5C 1177.63,740.257 1180.97,739.757 1184.5,740C 1182.42,741.705 1180.09,742.872 1177.5,743.5 Z"/></g>
<g><path style="opacity:0.969" fill="#2b4251" d="M 723.5,839.5 C 723.631,838.624 723.298,837.957 722.5,837.5C 720.929,838.309 719.262,838.643 717.5,838.5C 720.654,836.998 723.987,835.664 727.5,834.5C 727.236,836.498 725.903,838.165 723.5,839.5 Z"/></g>
<g><path style="opacity:1" fill="#507e9c" d="M 723.5,839.5 C 717.315,845.035 713.315,851.869 711.5,860C 712.941,867.445 717.275,872.445 724.5,875C 731.964,877.783 739.63,879.783 747.5,881C 827.803,891.631 908.136,891.965 988.5,882C 1021.63,877.504 1054.63,872.504 1087.5,867C 1102.24,880.216 1118.9,890.383 1137.5,897.5C 1077.83,915.599 1016.83,927.099 954.5,932C 890.006,937.719 825.673,936.386 761.5,928C 734.049,924.555 707.716,917.221 682.5,906C 673.405,901.871 666.572,895.371 662,886.5C 660.099,875.798 663.599,867.298 672.5,861C 686.166,850.938 701.166,843.438 717.5,838.5C 719.262,838.643 720.929,838.309 722.5,837.5C 723.298,837.957 723.631,838.624 723.5,839.5 Z"/></g>
<g><path style="opacity:0.957" fill="#253744" d="M 753.5,973.5 C 752.791,972.596 751.791,972.263 750.5,972.5C 752.828,971.282 755.328,970.282 758,969.5C 757.441,971.583 755.941,972.916 753.5,973.5 Z"/></g>
<g><path style="opacity:1" fill="#517f9d" d="M 750.5,972.5 C 751.791,972.263 752.791,972.596 753.5,973.5C 740.645,983.713 741.645,992.213 756.5,999C 763.961,1001.78 771.628,1003.78 779.5,1005C 844.048,1014.9 908.715,1015.9 973.5,1008C 998.31,1004.59 1022.98,1000.42 1047.5,995.5C 1069.69,1008.6 1092.69,1020.1 1116.5,1030C 1014.39,1071.01 909.056,1082.68 800.5,1065C 778.535,1061.18 757.202,1055.18 736.5,1047C 722.387,1041.54 710.554,1033.04 701,1021.5C 696.333,1014.17 696.333,1006.83 701,999.5C 714.722,985.717 731.222,976.717 750.5,972.5 Z"/></g>
<g><path style="opacity:1" fill="#507d9b" d="M 1300.5,1073.5 C 1300.84,1072.66 1301.51,1072.33 1302.5,1072.5C 1326.95,1084.78 1328.61,1099.61 1307.5,1117C 1288.83,1129 1268.83,1138.33 1247.5,1145C 1201.01,1159.12 1153.68,1169.46 1105.5,1176C 906.5,1200.89 708.167,1196.23 510.5,1162C 499.09,1159.53 488.09,1155.86 477.5,1151C 463.212,1143.8 460.045,1133.3 468,1119.5C 478.813,1108.01 491.313,1098.85 505.5,1092C 541.561,1074.48 579.561,1063.82 619.5,1060C 631.696,1058.82 643.696,1059.82 655.5,1063C 657.996,1064.08 660.33,1065.41 662.5,1067C 625.437,1068.68 590.437,1078.02 557.5,1095C 553.89,1096.94 550.557,1099.28 547.5,1102C 542.622,1106.26 541.789,1111.09 545,1116.5C 554.1,1122.46 563.933,1126.96 574.5,1130C 622.395,1142.43 671.062,1150.09 720.5,1153C 871.285,1162.82 1021.62,1158.16 1171.5,1139C 1205.52,1134.73 1238.85,1127.4 1271.5,1117C 1283.41,1113.13 1293.58,1106.63 1302,1097.5C 1305.03,1092.89 1306.03,1087.89 1305,1082.5C 1303.47,1079.45 1301.97,1076.45 1300.5,1073.5 Z"/></g>
<g><path style="opacity:0.388" fill="#1c2a33" d="M 1302.5,1072.5 C 1301.51,1072.33 1300.84,1072.66 1300.5,1073.5C 1299.37,1072.88 1298.37,1072.04 1297.5,1071C 1299.53,1070.4 1301.2,1070.9 1302.5,1072.5 Z"/></g>
<g><path style="opacity:1" fill="#4e7b98" d="M 634.5,1217.5 C 634.389,1216.88 634.056,1216.38 633.5,1216C 635.473,1215.5 637.473,1215.34 639.5,1215.5C 791.681,1235.02 944.015,1236.19 1096.5,1219C 1159.52,1212.16 1221.52,1200.16 1282.5,1183C 1311.18,1175.23 1337.85,1163.23 1362.5,1147C 1367.67,1143.17 1372.17,1138.67 1376,1133.5C 1374.28,1149.77 1367.11,1163.27 1354.5,1174C 1340.45,1185.03 1325.12,1194.03 1308.5,1201C 1269.02,1216.04 1228.35,1226.7 1186.5,1233C 1078.7,1248.54 970.362,1254.21 861.5,1250C 802.049,1248.9 743.049,1243.23 684.5,1233C 667.054,1229.9 650.388,1224.74 634.5,1217.5 Z"/></g>
<g><path style="opacity:1" fill="#2c4454" d="M 639.5,1215.5 C 637.473,1215.34 635.473,1215.5 633.5,1216C 634.056,1216.38 634.389,1216.88 634.5,1217.5C 632.063,1217.11 630.063,1215.95 628.5,1214C 632.381,1213.65 636.048,1214.15 639.5,1215.5 Z"/></g>
<g><path style="opacity:1" fill="#e56e00" d="M 559.5,1674.5 C 562.902,1744.73 531.902,1792.39 466.5,1817.5C 456.801,1807.14 447.467,1796.47 438.5,1785.5C 438.5,1784.5 438.5,1783.5 438.5,1782.5C 445.477,1777.87 452.477,1773.2 459.5,1768.5C 462.089,1767.58 464.089,1765.91 465.5,1763.5C 468.167,1760.17 471.167,1757.17 474.5,1754.5C 475.906,1754.03 476.573,1753.03 476.5,1751.5C 478.177,1749.46 479.844,1747.46 481.5,1745.5C 482.906,1745.03 483.573,1744.03 483.5,1742.5C 484.906,1742.03 485.573,1741.03 485.5,1739.5C 494.435,1718.13 498.435,1695.79 497.5,1672.5C 498.5,1559 498.833,1445.33 498.5,1331.5C 518.833,1331.5 539.167,1331.5 559.5,1331.5C 559.5,1445.83 559.5,1560.17 559.5,1674.5 Z"/></g>
<g><path style="opacity:0.353" fill="#4c2401" d="M 559.5,1674.5 C 559.5,1560.17 559.5,1445.83 559.5,1331.5C 539.167,1331.5 518.833,1331.5 498.5,1331.5C 498.833,1445.33 498.5,1559 497.5,1672.5C 497.5,1558.5 497.5,1444.5 497.5,1330.5C 518.5,1330.5 539.5,1330.5 560.5,1330.5C 560.833,1445.33 560.5,1560 559.5,1674.5 Z"/></g>
<g><path style="opacity:1" fill="#e26d00" d="M 787.5,1439.5 C 787.821,1441.05 788.821,1441.71 790.5,1441.5C 795.428,1444.1 799.761,1447.43 803.5,1451.5C 803.427,1453.03 804.094,1454.03 805.5,1454.5C 806.833,1455.17 807.833,1456.17 808.5,1457.5C 808.427,1459.03 809.094,1460.03 810.5,1460.5C 810.427,1462.03 811.094,1463.03 812.5,1463.5C 812.427,1465.03 813.094,1466.03 814.5,1466.5C 817.657,1470.96 819.657,1475.96 820.5,1481.5C 820.41,1484.15 821.076,1486.49 822.5,1488.5C 824.078,1493.58 824.745,1498.92 824.5,1504.5C 824.5,1574.5 824.5,1644.5 824.5,1714.5C 808.925,1715.13 793.592,1714.46 778.5,1712.5C 777.174,1704.88 776.174,1697.21 775.5,1689.5C 775.785,1687.71 775.452,1686.05 774.5,1684.5C 773.893,1684.62 773.56,1684.96 773.5,1685.5C 738.946,1717.56 698.612,1727.89 652.5,1716.5C 651.365,1714.79 649.698,1714.12 647.5,1714.5C 639.383,1712.28 632.383,1708.28 626.5,1702.5C 625.738,1700.74 624.404,1699.74 622.5,1699.5C 619.152,1696.15 616.152,1692.48 613.5,1688.5C 613.715,1686.82 613.048,1685.82 611.5,1685.5C 600.831,1662.71 598.664,1639.04 605,1614.5C 607.079,1608.02 609.912,1602.02 613.5,1596.5C 614.906,1596.03 615.573,1595.03 615.5,1593.5C 616.906,1593.03 617.573,1592.03 617.5,1590.5C 618.906,1590.03 619.573,1589.03 619.5,1587.5C 622.5,1583.83 625.833,1580.5 629.5,1577.5C 631.749,1576.92 633.415,1575.59 634.5,1573.5C 635.262,1571.74 636.596,1570.74 638.5,1570.5C 640.027,1570.57 641.027,1569.91 641.5,1568.5C 651.156,1561.72 661.823,1557.05 673.5,1554.5C 676.152,1554.59 678.485,1553.92 680.5,1552.5C 692.474,1549.06 704.807,1546.89 717.5,1546C 733.815,1544.89 750.148,1544.39 766.5,1544.5C 766.667,1533.83 766.5,1523.16 766,1512.5C 763.792,1488.29 750.625,1474.46 726.5,1471C 691.632,1468.14 657.965,1473.31 625.5,1486.5C 621.288,1474.17 618.621,1461.67 617.5,1449C 665.3,1427.32 714.967,1421.32 766.5,1431C 773.889,1432.96 780.889,1435.79 787.5,1439.5 Z M 728.5,1672.5 C 725.603,1673.13 722.936,1674.13 720.5,1675.5C 705.917,1679.17 691.917,1677.67 678.5,1671C 675,1668.33 671.667,1665.5 668.5,1662.5C 668.573,1660.97 667.906,1659.97 666.5,1659.5C 658.367,1642.08 658.534,1624.75 667,1607.5C 676.493,1595.33 688.993,1588.16 704.5,1586C 725.051,1582.98 745.718,1581.82 766.5,1582.5C 766.667,1604.84 766.5,1627.17 766,1649.5C 754.651,1659.01 742.151,1666.68 728.5,1672.5 Z"/></g>
<g><path style="opacity:1" fill="#e36d00" d="M 1336.5,1456.5 C 1336.43,1458.03 1337.09,1459.03 1338.5,1459.5C 1349.19,1473.91 1354.19,1490.24 1353.5,1508.5C 1353.5,1577.17 1353.5,1645.83 1353.5,1714.5C 1338.17,1714.5 1322.83,1714.5 1307.5,1714.5C 1306.13,1706.55 1305.13,1698.55 1304.5,1690.5C 1304.8,1688.4 1304.47,1686.4 1303.5,1684.5C 1302.89,1684.62 1302.56,1684.96 1302.5,1685.5C 1265.13,1719.41 1222.13,1728.91 1173.5,1714C 1169.94,1712.39 1166.61,1710.56 1163.5,1708.5C 1163.03,1707.09 1162.03,1706.43 1160.5,1706.5C 1158.6,1706.26 1157.26,1705.26 1156.5,1703.5C 1156.03,1702.09 1155.03,1701.43 1153.5,1701.5C 1143.22,1692.36 1136.39,1681.03 1133,1667.5C 1129.93,1652.15 1129.76,1636.81 1132.5,1621.5C 1133.92,1619.49 1134.59,1617.15 1134.5,1614.5C 1137,1603.16 1142.33,1593.5 1150.5,1585.5C 1152.26,1584.74 1153.26,1583.4 1153.5,1581.5C 1155.75,1580.92 1157.42,1579.59 1158.5,1577.5C 1169.1,1567.69 1181.43,1560.69 1195.5,1556.5C 1198.15,1556.59 1200.49,1555.92 1202.5,1554.5C 1213.44,1550.81 1224.77,1548.31 1236.5,1547C 1256.12,1545.1 1275.79,1544.27 1295.5,1544.5C 1295.67,1534.83 1295.5,1525.16 1295,1515.5C 1294.95,1496.49 1286.45,1482.99 1269.5,1475C 1255.53,1470.3 1241.2,1468.63 1226.5,1470C 1202.9,1472.09 1179.9,1476.92 1157.5,1484.5C 1156.17,1484.5 1154.83,1484.5 1153.5,1484.5C 1150.54,1474.67 1148.21,1464.67 1146.5,1454.5C 1146.33,1452.38 1146.66,1450.38 1147.5,1448.5C 1157.47,1443.84 1167.81,1440.18 1178.5,1437.5C 1181.15,1437.59 1183.49,1436.92 1185.5,1435.5C 1214.16,1427.23 1243.49,1424.39 1273.5,1427C 1292.94,1428.59 1310.61,1434.92 1326.5,1446C 1330.04,1449.37 1333.37,1452.87 1336.5,1456.5 Z M 1295.5,1649.5 C 1293.25,1650.08 1291.58,1651.41 1290.5,1653.5C 1281.93,1659.54 1272.93,1665.04 1263.5,1670C 1245.78,1678.7 1227.78,1679.54 1209.5,1672.5C 1208.71,1671.6 1207.71,1670.93 1206.5,1670.5C 1205.17,1669.5 1203.83,1668.5 1202.5,1667.5C 1201.5,1665.83 1200.17,1664.5 1198.5,1663.5C 1198.17,1662.5 1197.5,1661.83 1196.5,1661.5C 1196.57,1659.97 1195.91,1658.97 1194.5,1658.5C 1180.31,1616.7 1194.98,1592.2 1238.5,1585C 1257.44,1582.89 1276.44,1582.06 1295.5,1582.5C 1295.5,1604.83 1295.5,1627.17 1295.5,1649.5 Z"/></g>
<g><path style="opacity:0.867" fill="#c25d00" d="M 922.5,1432.5 C 901.327,1432.17 880.327,1432.5 859.5,1433.5C 858.957,1433.44 858.624,1433.11 858.5,1432.5C 879.996,1431.17 901.33,1431.17 922.5,1432.5 Z"/></g>
<g><path style="opacity:0.867" fill="#bc5a01" d="M 1105.5,1433.5 C 1085.34,1432.5 1065.01,1432.17 1044.5,1432.5C 1044.74,1433.79 1044.4,1434.79 1043.5,1435.5C 1043.5,1434.17 1043.5,1432.83 1043.5,1431.5C 1064.51,1431.17 1085.51,1431.5 1106.5,1432.5C 1106.38,1433.11 1106.04,1433.44 1105.5,1433.5 Z"/></g>
<g><path style="opacity:0.6" fill="#7b3b02" d="M 1377.5,1432.5 C 1371.5,1432.5 1365.5,1432.5 1359.5,1432.5C 1359.5,1433.5 1359.5,1434.5 1359.5,1435.5C 1361.83,1435.5 1364.17,1435.5 1366.5,1435.5C 1366.5,1441.83 1366.5,1448.17 1366.5,1454.5C 1366.17,1454.5 1365.83,1454.5 1365.5,1454.5C 1365.5,1448.5 1365.5,1442.5 1365.5,1436.5C 1363.17,1436.5 1360.83,1436.5 1358.5,1436.5C 1358.5,1434.83 1358.5,1433.17 1358.5,1431.5C 1365.02,1431.18 1371.36,1431.51 1377.5,1432.5 Z"/></g>
<g><path style="opacity:1" fill="#e26c00" d="M 922.5,1432.5 C 939.728,1487.02 956.894,1541.69 974,1596.5C 979.138,1616.05 983.805,1635.72 988,1655.5C 998.111,1627.69 1007.28,1599.69 1015.5,1571.5C 1016.92,1569.49 1017.59,1567.15 1017.5,1564.5C 1017.9,1560.24 1018.9,1556.24 1020.5,1552.5C 1021.92,1550.49 1022.59,1548.15 1022.5,1545.5C 1031.04,1509.12 1038.04,1472.46 1043.5,1435.5C 1044.4,1434.79 1044.74,1433.79 1044.5,1432.5C 1065.01,1432.17 1085.34,1432.5 1105.5,1433.5C 1089.07,1531.29 1060.07,1625.12 1018.5,1715C 1006.33,1715.17 994.167,1715.33 982,1715.5C 969.443,1715.49 957.109,1714.82 945,1713.5C 916.185,1620.23 887.685,1526.9 859.5,1433.5C 880.327,1432.5 901.327,1432.17 922.5,1432.5 Z"/></g>
<g><path style="opacity:1" fill="#e66e00" d="M 1377.5,1432.5 C 1377.5,1433.5 1377.5,1434.5 1377.5,1435.5C 1375.17,1435.5 1372.83,1435.5 1370.5,1435.5C 1370.5,1441.83 1370.5,1448.17 1370.5,1454.5C 1369.17,1454.5 1367.83,1454.5 1366.5,1454.5C 1366.5,1448.17 1366.5,1441.83 1366.5,1435.5C 1364.17,1435.5 1361.83,1435.5 1359.5,1435.5C 1359.5,1434.5 1359.5,1433.5 1359.5,1432.5C 1365.5,1432.5 1371.5,1432.5 1377.5,1432.5 Z"/></g>
<g><path style="opacity:0.353" fill="#592b01" d="M 1388.5,1433.5 C 1386.28,1432.63 1383.95,1432.3 1381.5,1432.5C 1381.5,1439.83 1381.5,1447.17 1381.5,1454.5C 1381.17,1454.5 1380.83,1454.5 1380.5,1454.5C 1380.5,1446.83 1380.5,1439.17 1380.5,1431.5C 1383.7,1430.96 1386.36,1431.63 1388.5,1433.5 Z"/></g>
<g><path style="opacity:1" fill="#cf6303" d="M 1406.5,1431.5 C 1406.5,1439.17 1406.5,1446.83 1406.5,1454.5C 1405.17,1454.5 1403.83,1454.5 1402.5,1454.5C 1402.67,1448.82 1402.5,1443.16 1402,1437.5C 1401.21,1438.74 1400.71,1440.08 1400.5,1441.5C 1399.73,1445.7 1398.4,1449.7 1396.5,1453.5C 1394.83,1454.83 1393.17,1454.83 1391.5,1453.5C 1389.6,1449.7 1388.27,1445.7 1387.5,1441.5C 1386.91,1440.23 1386.41,1438.9 1386,1437.5C 1385.5,1443.16 1385.33,1448.82 1385.5,1454.5C 1384.17,1454.5 1382.83,1454.5 1381.5,1454.5C 1381.5,1447.17 1381.5,1439.83 1381.5,1432.5C 1383.95,1432.3 1386.28,1432.63 1388.5,1433.5C 1390.6,1437.61 1392.43,1441.94 1394,1446.5C 1395.56,1441.72 1397.39,1437.05 1399.5,1432.5C 1401.74,1431.53 1404.08,1431.19 1406.5,1431.5 Z"/></g>
<g><path style="opacity:0.941" fill="#884206" d="M 1185.5,1435.5 C 1183.49,1436.92 1181.15,1437.59 1178.5,1437.5C 1180.51,1436.08 1182.85,1435.41 1185.5,1435.5 Z"/></g>
<g><path style="opacity:0.118" fill="#201000" d="M 1377.5,1435.5 C 1375.74,1436.46 1373.74,1436.79 1371.5,1436.5C 1371.5,1442.83 1371.5,1449.17 1371.5,1455.5C 1369.26,1455.79 1367.26,1455.46 1365.5,1454.5C 1365.83,1454.5 1366.17,1454.5 1366.5,1454.5C 1367.83,1454.5 1369.17,1454.5 1370.5,1454.5C 1370.5,1448.17 1370.5,1441.83 1370.5,1435.5C 1372.83,1435.5 1375.17,1435.5 1377.5,1435.5 Z"/></g>
<g><path style="opacity:0.119" fill="#201000" d="M 1387.5,1441.5 C 1386.51,1445.97 1386.18,1450.64 1386.5,1455.5C 1384.26,1455.79 1382.26,1455.46 1380.5,1454.5C 1380.83,1454.5 1381.17,1454.5 1381.5,1454.5C 1382.83,1454.5 1384.17,1454.5 1385.5,1454.5C 1385.33,1448.82 1385.5,1443.16 1386,1437.5C 1386.41,1438.9 1386.91,1440.23 1387.5,1441.5 Z"/></g>
<g><path style="opacity:0.177" fill="#2a1400" d="M 1406.5,1431.5 C 1407.49,1439.32 1407.83,1447.32 1407.5,1455.5C 1405.5,1455.5 1403.5,1455.5 1401.5,1455.5C 1401.82,1450.64 1401.49,1445.97 1400.5,1441.5C 1400.71,1440.08 1401.21,1438.74 1402,1437.5C 1402.5,1443.16 1402.67,1448.82 1402.5,1454.5C 1403.83,1454.5 1405.17,1454.5 1406.5,1454.5C 1406.5,1446.83 1406.5,1439.17 1406.5,1431.5 Z"/></g>
<g><path style="opacity:0.941" fill="#6b350b" d="M 787.5,1439.5 C 788.71,1439.93 789.71,1440.6 790.5,1441.5C 788.821,1441.71 787.821,1441.05 787.5,1439.5 Z"/></g>
<g><path style="opacity:0.725" fill="#673307" d="M 1147.5,1448.5 C 1146.66,1450.38 1146.33,1452.38 1146.5,1454.5C 1145.85,1453.73 1145.52,1452.73 1145.5,1451.5C 1145.64,1449.97 1146.31,1448.97 1147.5,1448.5 Z"/></g>
<g><path style="opacity:0.655" fill="#572c09" d="M 803.5,1451.5 C 804.906,1451.97 805.573,1452.97 805.5,1454.5C 804.094,1454.03 803.427,1453.03 803.5,1451.5 Z"/></g>
<g><path style="opacity:0.2" fill="#271300" d="M 1391.5,1453.5 C 1393.17,1454.83 1394.83,1454.83 1396.5,1453.5C 1396.21,1454.65 1395.38,1455.32 1394,1455.5C 1392.62,1455.32 1391.79,1454.65 1391.5,1453.5 Z"/></g>
<g><path style="opacity:0.749" fill="#5f3009" d="M 1336.5,1456.5 C 1337.91,1456.97 1338.57,1457.97 1338.5,1459.5C 1337.09,1459.03 1336.43,1458.03 1336.5,1456.5 Z"/></g>
<g><path style="opacity:0.471" fill="#572b06" d="M 808.5,1457.5 C 809.906,1457.97 810.573,1458.97 810.5,1460.5C 809.094,1460.03 808.427,1459.03 808.5,1457.5 Z"/></g>
<g><path style="opacity:0.533" fill="#663207" d="M 810.5,1460.5 C 811.906,1460.97 812.573,1461.97 812.5,1463.5C 811.094,1463.03 810.427,1462.03 810.5,1460.5 Z"/></g>
<g><path style="opacity:0.369" fill="#4f2706" d="M 812.5,1463.5 C 813.906,1463.97 814.573,1464.97 814.5,1466.5C 813.094,1466.03 812.427,1465.03 812.5,1463.5 Z"/></g>
<g><path style="opacity:0.792" fill="#683308" d="M 1153.5,1484.5 C 1154.83,1484.5 1156.17,1484.5 1157.5,1484.5C 1156.47,1485.25 1155.3,1485.92 1154,1486.5C 1153.54,1485.91 1153.37,1485.24 1153.5,1484.5 Z"/></g>
<g><path style="opacity:0.729" fill="#803d05" d="M 820.5,1481.5 C 821.924,1483.51 822.59,1485.85 822.5,1488.5C 821.076,1486.49 820.41,1484.15 820.5,1481.5 Z"/></g>
<g><path style="opacity:0.294" fill="#411f00" d="M 824.5,1504.5 C 825.499,1574.66 825.833,1645 825.5,1715.5C 809.833,1715.5 794.167,1715.5 778.5,1715.5C 778.5,1714.5 778.5,1713.5 778.5,1712.5C 793.592,1714.46 808.925,1715.13 824.5,1714.5C 824.5,1644.5 824.5,1574.5 824.5,1504.5 Z"/></g>
<g><path style="opacity:0.698" fill="#753806" d="M 1022.5,1545.5 C 1022.59,1548.15 1021.92,1550.49 1020.5,1552.5C 1020.41,1549.85 1021.08,1547.51 1022.5,1545.5 Z"/></g>
<g><path style="opacity:0.941" fill="#894205" d="M 680.5,1552.5 C 678.485,1553.92 676.152,1554.59 673.5,1554.5C 675.515,1553.08 677.848,1552.41 680.5,1552.5 Z"/></g>
<g><path style="opacity:0.91" fill="#833f07" d="M 1202.5,1554.5 C 1200.49,1555.92 1198.15,1556.59 1195.5,1556.5C 1197.51,1555.08 1199.85,1554.41 1202.5,1554.5 Z"/></g>
<g><path style="opacity:0.929" fill="#7d3d07" d="M 1017.5,1564.5 C 1017.59,1567.15 1016.92,1569.49 1015.5,1571.5C 1015.41,1568.85 1016.08,1566.51 1017.5,1564.5 Z"/></g>
<g><path style="opacity:0.765" fill="#693308" d="M 641.5,1568.5 C 641.027,1569.91 640.027,1570.57 638.5,1570.5C 638.973,1569.09 639.973,1568.43 641.5,1568.5 Z"/></g>
<g><path style="opacity:0.933" fill="#874208" d="M 634.5,1573.5 C 633.415,1575.59 631.749,1576.92 629.5,1577.5C 630.585,1575.41 632.251,1574.08 634.5,1573.5 Z"/></g>
<g><path style="opacity:0.725" fill="#6a3509" d="M 1158.5,1577.5 C 1157.42,1579.59 1155.75,1580.92 1153.5,1581.5C 1154.58,1579.41 1156.25,1578.08 1158.5,1577.5 Z"/></g>
<g><path style="opacity:0.569" fill="#5f2f08" d="M 1153.5,1581.5 C 1153.26,1583.4 1152.26,1584.74 1150.5,1585.5C 1150.74,1583.6 1151.74,1582.26 1153.5,1581.5 Z"/></g>
<g><path style="opacity:0.667" fill="#522908" d="M 619.5,1587.5 C 619.573,1589.03 618.906,1590.03 617.5,1590.5C 617.427,1588.97 618.094,1587.97 619.5,1587.5 Z"/></g>
<g><path style="opacity:0.565" fill="#673307" d="M 617.5,1590.5 C 617.573,1592.03 616.906,1593.03 615.5,1593.5C 615.427,1591.97 616.094,1590.97 617.5,1590.5 Z"/></g>
<g><path style="opacity:0.486" fill="#623006" d="M 615.5,1593.5 C 615.573,1595.03 614.906,1596.03 613.5,1596.5C 613.427,1594.97 614.094,1593.97 615.5,1593.5 Z"/></g>
<g><path style="opacity:0.667" fill="#723806" d="M 1134.5,1614.5 C 1134.59,1617.15 1133.92,1619.49 1132.5,1621.5C 1132.41,1618.85 1133.08,1616.51 1134.5,1614.5 Z"/></g>
<g><path style="opacity:0.941" fill="#8c4407" d="M 1295.5,1649.5 C 1294.42,1651.59 1292.75,1652.92 1290.5,1653.5C 1291.58,1651.41 1293.25,1650.08 1295.5,1649.5 Z"/></g>
<g><path style="opacity:0.553" fill="#693307" d="M 1194.5,1658.5 C 1195.91,1658.97 1196.57,1659.97 1196.5,1661.5C 1195.09,1661.03 1194.43,1660.03 1194.5,1658.5 Z"/></g>
<g><path style="opacity:0.459" fill="#582b06" d="M 666.5,1659.5 C 667.906,1659.97 668.573,1660.97 668.5,1662.5C 667.094,1662.03 666.427,1661.03 666.5,1659.5 Z"/></g>
<g><path style="opacity:0.643" fill="#482408" d="M 1198.5,1663.5 C 1200.17,1664.5 1201.5,1665.83 1202.5,1667.5C 1200.17,1667.17 1198.83,1665.83 1198.5,1663.5 Z"/></g>
<g><path style="opacity:0.937" fill="#6b360b" d="M 1206.5,1670.5 C 1207.71,1670.93 1208.71,1671.6 1209.5,1672.5C 1207.82,1672.71 1206.82,1672.05 1206.5,1670.5 Z"/></g>
<g><path style="opacity:0.949" fill="#894306" d="M 728.5,1672.5 C 726.383,1674.65 723.716,1675.65 720.5,1675.5C 722.936,1674.13 725.603,1673.13 728.5,1672.5 Z"/></g>
<g><path style="opacity:0.604" fill="#4d2604" d="M 773.5,1685.5 C 773.56,1684.96 773.893,1684.62 774.5,1684.5C 775.452,1686.05 775.785,1687.71 775.5,1689.5C 774.833,1688.17 774.167,1686.83 773.5,1685.5 Z"/></g>
<g><path style="opacity:0.8" fill="#663207" d="M 1302.5,1685.5 C 1302.56,1684.96 1302.89,1684.62 1303.5,1684.5C 1304.47,1686.4 1304.8,1688.4 1304.5,1690.5C 1303.83,1688.83 1303.17,1687.17 1302.5,1685.5 Z"/></g>
<g><path style="opacity:0.941" fill="#69340b" d="M 611.5,1685.5 C 613.048,1685.82 613.715,1686.82 613.5,1688.5C 612.599,1687.71 611.932,1686.71 611.5,1685.5 Z"/></g>
<g><path style="opacity:0.749" fill="#582d09" d="M 622.5,1699.5 C 624.404,1699.74 625.738,1700.74 626.5,1702.5C 624.596,1702.26 623.262,1701.26 622.5,1699.5 Z"/></g>
<g><path style="opacity:0.714" fill="#5a2d09" d="M 1153.5,1701.5 C 1155.03,1701.43 1156.03,1702.09 1156.5,1703.5C 1154.97,1703.57 1153.97,1702.91 1153.5,1701.5 Z"/></g>
<g><path style="opacity:0.4" fill="#542a06" d="M 1160.5,1706.5 C 1162.03,1706.43 1163.03,1707.09 1163.5,1708.5C 1161.97,1708.57 1160.97,1707.91 1160.5,1706.5 Z"/></g>
<g><path style="opacity:0.906" fill="#6a3409" d="M 647.5,1714.5 C 649.698,1714.12 651.365,1714.79 652.5,1716.5C 650.597,1716.2 648.93,1715.54 647.5,1714.5 Z"/></g>
<g><path style="opacity:0.267" fill="#2d1600" d="M 1353.5,1508.5 C 1354.5,1577.33 1354.83,1646.33 1354.5,1715.5C 1338.66,1715.83 1322.99,1715.5 1307.5,1714.5C 1322.83,1714.5 1338.17,1714.5 1353.5,1714.5C 1353.5,1645.83 1353.5,1577.17 1353.5,1508.5 Z"/></g>
<g><path style="opacity:0.459" fill="#5d2e06" d="M 485.5,1739.5 C 485.573,1741.03 484.906,1742.03 483.5,1742.5C 483.427,1740.97 484.094,1739.97 485.5,1739.5 Z"/></g>
<g><path style="opacity:0.471" fill="#5a2c06" d="M 483.5,1742.5 C 483.573,1744.03 482.906,1745.03 481.5,1745.5C 481.427,1743.97 482.094,1742.97 483.5,1742.5 Z"/></g>
<g><path style="opacity:0.694" fill="#5b2e09" d="M 476.5,1751.5 C 476.573,1753.03 475.906,1754.03 474.5,1754.5C 474.427,1752.97 475.094,1751.97 476.5,1751.5 Z"/></g>
<g><path style="opacity:0.843" fill="#793b08" d="M 465.5,1763.5 C 464.089,1765.91 462.089,1767.58 459.5,1768.5C 460.911,1766.09 462.911,1764.42 465.5,1763.5 Z"/></g>
<g><path style="opacity:0.722" fill="#5b2e09" d="M 438.5,1782.5 C 438.5,1783.5 438.5,1784.5 438.5,1785.5C 436.443,1783.96 436.443,1782.96 438.5,1782.5 Z"/></g>
</svg>
