<?xml version="1.0" standalone="no"?>
<!DOCTYPE svg PUBLIC "-//W3C//DTD SVG 20010904//EN"
 "http://www.w3.org/TR/2001/REC-SVG-20010904/DTD/svg10.dtd">
<svg version="1.0" xmlns="http://www.w3.org/2000/svg"
 width="3000.000000pt" height="3000.000000pt" viewBox="0 0 3000.000000 3000.000000"
 preserveAspectRatio="xMidYMid meet">

<g transform="translate(0.000000,3000.000000) scale(0.100000,-0.100000)"
fill="#000000" stroke="none">
<path d="M17410 28448 c-466 -642 -584 -824 -748 -1153 -310 -625 -491 -1280
-553 -2010 -16 -180 -16 -680 0 -855 67 -770 247 -1439 581 -2161 588 -1270
1627 -2417 2890 -3191 414 -254 906 -495 1330 -653 169 -63 557 -191 654 -216
161 -41 586 -110 881 -144 583 -65 1189 -72 1695 -19 1783 185 3193 1056 4175
2579 123 191 450 752 423 725 -3 -3 -43 -52 -88 -110 -609 -770 -1405 -1278
-2370 -1514 -464 -113 -810 -151 -1375 -151 -478 0 -760 23 -1256 100 -274 43
-745 140 -929 192 -1086 302 -2102 841 -2940 1559 -203 174 -576 541 -741 729
-637 727 -1100 1493 -1423 2356 -196 525 -322 1078 -371 1634 -19 212 -22 666
-6 865 54 649 213 1243 486 1808 46 94 82 172 81 172 -1 0 -180 -244 -396
-542z"/>
<path d="M10998 26598 c-825 -1166 -842 -1191 -991 -1439 -637 -1061 -1003
-2251 -1107 -3599 -18 -231 -24 -805 -11 -1060 86 -1688 576 -3261 1491 -4780
273 -452 780 -1183 1031 -1485 140 -168 878 -913 1154 -1166 1053 -959 2267
-1732 3570 -2271 348 -144 599 -235 1090 -394 346 -113 401 -127 702 -173 634
-98 1208 -154 1848 -182 300 -13 1067 -7 1330 11 1050 69 1931 235 2815 530
1039 346 1971 848 2800 1509 1127 899 2060 2100 2646 3407 113 254 244 599
206 544 -58 -84 -279 -372 -356 -465 -349 -421 -743 -808 -1166 -1147 -1295
-1036 -2940 -1686 -4700 -1857 -394 -39 -541 -45 -1010 -45 -451 0 -593 6
-970 40 -1112 100 -2245 381 -3350 831 -581 236 -1270 586 -1790 910 -2110
1310 -3789 3226 -4715 5378 -441 1025 -698 2040 -791 3125 -21 253 -30 927
-15 1201 55 997 263 1919 629 2794 102 245 301 650 394 803 11 17 18 32 15 32
-2 0 -339 -474 -749 -1052z"/>
<path d="M3255 23723 c-545 -691 -1034 -1322 -1088 -1402 -352 -522 -654
-1078 -905 -1666 -736 -1721 -1002 -3671 -782 -5715 187 -1727 721 -3477 1562
-5120 585 -1142 1283 -2176 2158 -3195 511 -596 1200 -1281 1810 -1801 1599
-1363 3368 -2393 5320 -3097 282 -101 437 -152 885 -291 432 -133 443 -135
795 -195 2732 -467 5209 -390 7455 230 1498 414 2907 1091 4145 1992 1635
1190 3014 2798 3943 4597 119 230 327 679 327 706 0 3 -53 -61 -119 -143
-1749 -2185 -4338 -3568 -7481 -3997 -369 -51 -757 -88 -1220 -117 -273 -17
-1134 -23 -1455 -10 -990 40 -1917 151 -2870 345 -493 100 -645 140 -1195 311
-1509 471 -2933 1147 -4275 2030 -1904 1253 -3561 2900 -4805 4775 -804 1214
-1426 2533 -1845 3915 -595 1964 -742 3979 -429 5860 178 1071 493 2063 967
3048 53 108 95 197 94 197 -1 0 -447 -566 -992 -1257z"/>
</g>
</svg>
