<?xml version="1.0" standalone="no"?>
<!DOCTYPE svg PUBLIC "-//W3C//DTD SVG 20010904//EN"
 "http://www.w3.org/TR/2001/REC-SVG-20010904/DTD/svg10.dtd">
<svg version="1.0" xmlns="http://www.w3.org/2000/svg"
 width="409.000000pt" height="409.000000pt" viewBox="0 0 409.000000 409.000000"
 preserveAspectRatio="xMidYMid meet">

<g transform="translate(0.000000,409.000000) scale(0.100000,-0.100000)"
fill="#000000" stroke="none">
<path d="M1806 4064 c-156 -28 -333 -101 -484 -198 -144 -93 -265 -197 -473
-406 -217 -219 -444 -487 -564 -665 -114 -170 -188 -349 -240 -580 -35 -156
-40 -232 -25 -351 32 -257 152 -506 368 -764 108 -130 443 -455 599 -582 366
-299 518 -383 832 -466 129 -34 145 -36 301 -36 187 -1 257 13 428 84 225 94
397 223 692 519 227 228 456 498 576 677 120 180 199 379 250 630 21 108 25
144 19 223 -20 317 -159 600 -452 926 -201 223 -619 590 -843 740 -171 114
-368 192 -605 240 -140 28 -256 31 -379 9z m-286 -1259 l0 -215 -215 0 -215 0
0 215 0 215 215 0 215 0 0 -215z m520 0 l0 -215 -220 0 -220 0 0 215 0 215
220 0 220 0 0 -215z m518 3 l-3 -213 -215 0 -215 0 -3 213 -2 212 220 0 220 0
-2 -212z m-1040 -521 l2 -217 -217 2 -218 3 -3 195 c-1 107 0 205 3 218 l5 22
213 -2 212 -3 3 -218z m511 209 c8 -9 11 -75 9 -217 l-3 -204 -215 0 -215 0
-3 205 c-1 112 0 210 2 217 8 20 409 19 425 -1z m1049 -209 l2 -217 -217 2
-218 3 -3 205 c-1 112 0 210 3 217 3 11 50 13 217 11 l213 -3 3 -218z m0 -520
l2 -217 -217 2 -218 3 -3 209 c-2 161 1 211 10 218 7 4 105 7 218 5 l205 -2 3
-218z m-1563 -2 l0 -210 -215 0 -215 0 -3 200 c-1 110 0 205 3 212 3 11 50 13
217 11 l213 -3 0 -210z m1040 0 l0 -210 -215 0 -215 0 -3 200 c-1 110 0 205 3
212 3 11 50 13 217 11 l213 -3 0 -210z m3 -511 c2 -164 0 -213 -10 -215 -7 -2
-106 -3 -220 -1 l-208 3 0 208 c0 114 3 211 7 215 4 3 102 5 217 4 l211 -3 3
-211z m520 -1 l2 -213 -220 0 -220 0 0 208 c0 115 3 212 7 216 4 3 102 5 217
4 l211 -3 3 -212z m-1040 1 c2 -154 -1 -204 -10 -211 -8 -6 -95 -8 -220 -5
l-208 4 0 209 0 209 218 -2 217 -3 3 -201z"/>
</g>
</svg>
