<?xml version="1.0" standalone="no"?>
<!DOCTYPE svg PUBLIC "-//W3C//DTD SVG 20010904//EN"
 "http://www.w3.org/TR/2001/REC-SVG-20010904/DTD/svg10.dtd">
<svg version="1.0" xmlns="http://www.w3.org/2000/svg"
 width="2007.000000pt" height="1209.000000pt" viewBox="0 0 2007.000000 1209.000000"
 preserveAspectRatio="xMidYMid meet">

<g transform="translate(0.000000,1209.000000) scale(0.100000,-0.100000)"
fill="#000000" stroke="none">
<path d="M5583 12049 c-110 -35 -200 -124 -245 -244 -19 -49 -23 -79 -22 -160
0 -88 4 -110 33 -183 38 -97 112 -211 242 -377 128 -162 259 -346 302 -425 20
-36 49 -114 66 -175 29 -107 110 -345 186 -550 93 -248 240 -515 347 -631 81
-88 89 -110 58 -172 -12 -26 -37 -112 -56 -192 -19 -80 -47 -194 -63 -255
-169 -649 -25 -1435 328 -1786 93 -92 161 -124 266 -124 70 0 87 4 134 30 109
60 141 130 177 380 25 173 60 365 69 373 7 8 4 14 128 -233 131 -260 188 -342
358 -520 116 -120 294 -281 335 -303 14 -7 39 -12 55 -10 l30 3 -45 59 c-149
191 -381 566 -554 896 -105 202 -248 530 -272 627 -6 22 -18 51 -28 63 l-18
22 -88 -112 c-49 -61 -103 -136 -121 -165 -66 -111 -111 -295 -145 -600 -11
-104 -23 -200 -25 -211 -16 -75 -150 6 -220 131 -42 74 -108 233 -135 325 -54
181 -80 381 -80 610 0 289 30 460 125 722 131 358 128 417 -25 577 -88 92
-154 191 -230 346 -57 117 -89 205 -225 625 -74 226 -135 365 -212 482 -75
113 -181 258 -283 388 -54 68 -110 153 -138 209 -42 84 -47 101 -47 162 0 53
5 74 21 96 66 90 193 83 444 -25 226 -97 391 -190 503 -284 124 -104 140 -112
236 -119 457 -35 479 -37 600 -78 676 -226 1424 -824 1928 -1541 157 -223 314
-497 373 -650 18 -47 48 -125 68 -175 19 -49 100 -227 179 -394 79 -167 180
-385 225 -485 151 -342 274 -558 354 -624 43 -36 138 -75 319 -132 209 -66
445 -158 524 -205 42 -24 137 -87 211 -140 74 -52 225 -155 335 -229 110 -74
208 -143 218 -154 l19 -20 -314 -5 c-351 -5 -323 0 -598 -94 -235 -80 -239
-85 -179 -210 88 -184 194 -312 377 -451 185 -141 274 -194 546 -326 140 -68
287 -145 326 -170 83 -54 345 -250 355 -266 10 -16 105 -90 115 -90 5 0 -4 27
-21 59 -16 33 -29 65 -29 71 0 6 -42 55 -93 108 -51 53 -132 143 -180 198
-156 182 -358 350 -584 485 -76 45 -165 101 -198 123 -80 53 -180 149 -209
202 l-23 42 61 11 c33 7 119 28 189 47 128 35 242 56 367 69 110 11 180 24
315 62 180 49 186 53 144 107 -17 21 -29 26 -67 26 -44 0 -50 4 -89 50 -96
115 -505 440 -814 647 -132 89 -220 137 -379 206 -69 31 -161 72 -205 92 -44
21 -100 43 -125 51 -65 20 -104 47 -138 96 -37 54 -422 842 -530 1083 -44 99
-119 277 -166 395 -96 238 -140 321 -291 550 -453 687 -943 1152 -1706 1618
-216 131 -306 167 -604 241 -139 34 -184 41 -349 50 -215 12 -219 13 -336 116
-114 100 -381 246 -576 315 -201 71 -385 89 -511 49z"/>
<path d="M6891 10809 c-47 -5 -86 -11 -89 -13 -6 -7 49 -83 108 -150 36 -41
71 -100 112 -185 l59 -126 39 41 c41 44 70 120 70 183 0 37 -36 119 -68 154
-25 28 -129 107 -139 106 -4 -1 -46 -6 -92 -10z"/>
<path d="M8440 6425 c73 -74 162 -139 181 -133 7 2 -14 25 -47 50 -32 25 -81
69 -109 97 -27 28 -58 51 -69 51 -16 0 -6 -15 44 -65z"/>
<path d="M515 4004 c-104 -19 -255 -67 -311 -100 -65 -38 -129 -115 -156 -187
l-23 -62 -3 -1372 -2 -1373 325 0 325 0 0 1300 c0 715 4 1300 8 1300 5 0 89
-179 187 -397 98 -219 238 -531 310 -693 73 -162 228 -509 345 -770 119 -268
231 -504 257 -542 76 -115 171 -181 310 -215 105 -25 353 -22 457 6 132 35
223 101 294 215 22 33 145 297 275 586 129 289 326 728 437 975 111 248 240
537 288 643 47 105 90 192 94 192 4 0 8 -582 8 -1292 0 -711 0 -1296 0 -1300
0 -5 146 -8 325 -8 l325 0 0 1338 c0 1439 1 1414 -52 1518 -26 52 -98 123
-154 152 -54 28 -192 68 -299 88 -135 24 -314 16 -420 -20 -148 -50 -269 -152
-339 -286 -19 -36 -164 -357 -324 -715 -638 -1433 -706 -1585 -713 -1585 -3 0
-80 170 -169 378 -89 207 -270 625 -400 927 -131 303 -279 647 -330 765 -104
240 -155 326 -238 400 -146 131 -380 180 -637 134z"/>
<path d="M7628 2183 l-3 -858 -700 -3 c-411 -1 -741 2 -801 7 -164 17 -260 65
-303 154 -21 43 -21 53 -21 795 l0 752 -325 0 -325 0 2 -793 3 -792 33 -68
c101 -205 347 -349 712 -418 111 -21 145 -22 918 -26 l802 -4 0 -142 c0 -116
-4 -149 -19 -182 -35 -77 -104 -125 -231 -161 -61 -18 -127 -19 -1137 -22
l-1073 -3 0 -209 0 -210 1146 0 c1107 0 1149 1 1244 20 339 69 575 215 671
416 60 125 59 86 59 1402 l0 1202 -325 0 -325 0 -2 -857z"/>
</g>
</svg>
